<?xml version="1.0" encoding="UTF-8" standalone="no"?>
<!-- Created with Inkscape (http://www.inkscape.org/) -->

<svg
   xmlns:dc="http://purl.org/dc/elements/1.1/"
   xmlns:cc="http://creativecommons.org/ns#"
   xmlns:rdf="http://www.w3.org/1999/02/22-rdf-syntax-ns#"
   xmlns:svg="http://www.w3.org/2000/svg"
   xmlns="http://www.w3.org/2000/svg"
   xmlns:sodipodi="http://sodipodi.sourceforge.net/DTD/sodipodi-0.dtd"
   xmlns:inkscape="http://www.inkscape.org/namespaces/inkscape"
   version="1.0"
   width="132.88316"
   height="200.056"
   id="svg2"
   inkscape:version="0.47 r22583"
   sodipodi:docname="DeltaSigmaTheta.svg">
  <metadata
     id="metadata15">
    <rdf:RDF>
      <cc:Work
         rdf:about="">
        <dc:format>image/svg+xml</dc:format>
        <dc:type
           rdf:resource="http://purl.org/dc/dcmitype/StillImage" />
      </cc:Work>
    </rdf:RDF>
  </metadata>
  <sodipodi:namedview
     pagecolor="#ffffff"
     bordercolor="#666666"
     borderopacity="1"
     objecttolerance="10"
     gridtolerance="10"
     guidetolerance="10"
     inkscape:pageopacity="0"
     inkscape:pageshadow="2"
     inkscape:window-width="1280"
     inkscape:window-height="710"
     id="namedview13"
     showgrid="false"
     inkscape:zoom="0.26487093"
     inkscape:cx="289.32167"
     inkscape:cy="432.56795"
     inkscape:window-x="-4"
     inkscape:window-y="-4"
     inkscape:window-maximized="1"
     inkscape:current-layer="svg2" />
  <defs
     id="defs5">
    <inkscape:perspective
       sodipodi:type="inkscape:persp3d"
       inkscape:vp_x="0 : 445.5 : 1"
       inkscape:vp_y="0 : 1000 : 0"
       inkscape:vp_z="692 : 445.5 : 1"
       inkscape:persp3d-origin="346 : 297 : 1"
       id="perspective17" />
  </defs>
  <g
     id="g1873"
     transform="matrix(0.23225702,0,0,0.23225702,-13.16393,-3.8812897)">
    <path
       d="m 225.77101,827.3564 c -3.43976,-3.99917 -6.7138,-8.31456 -9.7988,-12.95544 C 150.45016,777.78204 88.877875,707.54507 60.475676,638.2793 c 4.19717,-6.29331 3.563046,-5.72801 10.373731,-10.35407 74.329673,-50.48731 65.667463,-70.07892 -0.946843,-55.87076 4.380642,-14.20699 27.160251,-11.13227 16.998881,-57.57873 0,0 8.68047,-20.6488 8.68047,-20.6488 1.18125,-25.70211 -12.967596,-61.6813 2.46828,-75.8186 3.132465,-20.79043 3.738315,-34.89563 7.442725,-34.93924 2.54953,-15.27263 -4.47364,-29.15505 -1.47055,-43.17016 4.23279,-19.75403 6.76345,-39.77468 15.56846,-62.17397 9.24198,8.16466 18.67053,-11.28549 25.51418,-22.12353 47.33046,-37.3135 27.9658,-27.2919 42.29573,-57.62573 0,0 55.14811,-21.90846 55.14811,-21.90846 10.60851,7.24825 21.30282,-9.42984 36.37213,-9.89965 4.5506,-0.14187 5.79891,-7.33775 7.43191,-9.85815 4.66859,-7.20557 6.37429,-14.73991 -6.1926,-26.92768 -6.24216,-6.05384 4.61304,-13.15677 -5.93685,-25.65995 -4.7445,-5.622948 -1.03711,-9.889168 3.96459,-13.743001 10.47086,-21.567411 20.4102,-46.329515 43.62366,-53.14494 13.12128,-8.411154 28.08238,-14.422958 43.85535,-17.390546 43.72636,-1.657759 42.17295,44.578977 21.20679,73.018809 -4.65196,6.31021 5.72136,15.899088 6.43715,22.405228 13.48945,34.82946 8.06609,63.33447 63.66321,70.12269 46.13542,8.96703 49.87434,29.22132 50.5882,48.93838 0,0 26.68457,16.3074 26.68457,16.3074 5.07788,2.16345 25.22763,54.2827 34.19437,28.83139 16.09874,47.26211 22.89337,119.87222 22.89337,119.87222 7.05784,18.68355 4.78999,71.63601 4.78999,71.63601 -6.09952,30.45022 -11.23556,51.86771 10.52952,30.55618 0,0 0.26922,15.64489 -0.0466,23.62011 0,0 -7.71976,25.76445 -8.07419,31.96695 18.75724,13.52683 22.8575,28.59333 -1.75662,48.85904 -0.37247,-2.83809 -1.91996,-4.96201 -1.89778,-7.02129 0.22103,-20.52588 -4.00405,-25.26494 -9.45829,-24.62839 -13.46999,1.57205 -30.45689,16.23593 -15.99556,28.88617 3.73665,3.26868 17.50033,15.87674 29.46045,23.93534 0,0 -151.05651,200.007 -151.05651,200.007 0,0 -164.80522,42.86801 -222.05814,0.59983 z m -40.29487,-354.23256 -15.86781,66.63733 c 2.60862,15.14121 2.84854,32.84135 1.02367,39.06168 -13.06755,-0.81542 -39.27889,-8.4295 -26.73464,-28.01444 4.97568,-7.76838 -0.70715,-18.45865 1.97453,-24.77778 14.95667,-18.31172 29.92788,-36.61929 27.55622,-59.88196 0,0 -1.98327,-15.7287 -1.98327,-15.7287 -8.01889,-2.64391 -11.67994,0.39766 -14.35468,-1.85206 -9.43495,-7.93577 27.90152,-45.80397 9.28619,-76.34244 -22.11231,37.77047 -8.00067,-28.39952 -12.05358,-49.67064 -1.78871,-9.38778 -2.41106,-17.10037 6.71238,-17.10771 45.90536,12.77043 45.16579,110.98084 24.44099,167.67672 z m 240.313,249.23053 c 30.33801,-14.33228 86.78562,-52.62603 99.761,-89.57077 0,0 -12.7839,-19.73282 -12.7839,-19.73282 -31.75103,41.75978 -62.62393,71.66473 -92.68406,90.59745 -17.82093,18.33231 -38.11345,38.18052 5.70696,18.70614 z m -137.41278,5.94266 C 217.39617,675.9873 182.18279,601.6842 168.21156,616.95823 c -27.52137,30.08771 83.20002,108.16733 120.1648,111.3388 z m 228.3154,-141.05079 c 2.99688,-6.7817 23.278,-2.68549 23.22812,-39.32561 -0.0525,-37.53529 -14.95809,-24.16908 -24.73032,-84.39676 -1.81457,-6.6858 -3.09857,-13.6546 -3.87629,-20.75668 17.56189,10.56471 -11.76292,-80.93302 18.15218,-57.19924 0.86694,-11.57041 1.88627,-32.04986 1.88627,-32.04986 1.29296,-4.96873 0.49731,-9.45172 1.13414,-13.25819 12.56314,-75.09239 -23.59605,-31.51448 -35.70371,5.99709 -24.05286,56.16716 -6.52182,109.94093 9.37295,165.15087 2.82197,18.64765 5.13446,54.76929 10.53666,75.83838 z"
       style="fill:#f8dfb7;fill-opacity:1;fill-rule:evenodd;stroke:none"
       id="path8159" />
    <path
       d="m 361.06267,525.7087 c 1.16838,2.64989 -8.70489,103.35942 -13.10195,100.54499 -4.39706,-2.81443 -5.17928,-2.24756 -5.17928,-0.28595 0,0.83986 1.33161,1.99122 2.95914,2.55858 3.52839,1.23 4.8096,4.33039 2.76297,6.68606 -1.7353,1.99733 -2.86036,11.89053 -2.03609,17.90429 l 0.58716,4.28377 2.26945,-6.75486 c 1.24819,-3.71517 2.58865,-8.89789 2.97879,-11.51716 0.39015,-2.61926 1.51472,-4.78211 1.5998,-5.31262 0.0851,-0.53051 10.01268,-104.76107 10.28431,-106.32978 0.27164,-1.56872 0.39743,-4.25114 0.4247,-8.13205 0.0288,-4.10479 0.51392,-8.98323 1.07794,-10.84098 0.68765,-2.26499 0.69539,-3.99451 0.0235,-5.25 -0.91449,-1.70874 -2.38572,-1.87227 -16.84438,-1.87227 -12.17892,0 -16.10478,-0.31618 -16.97715,-1.36732 -2.4977,-3.00955 1.11375,-3.66092 19.29149,-3.47945 18.61483,0.18584 21.22101,-0.35422 18.96874,-3.93075 -1.55251,-2.46534 -4.11281,-2.67611 -7.87781,-0.64853 -3.17908,1.71205 -3.42838,1.69993 -8.32029,-0.40451 -2.77365,-1.19319 -6.17052,-2.16944 -7.5486,-2.16944 -3.21,0 -4.42603,-1.94011 -2.22487,-3.54963 1.84062,-1.3459 7.75869,-1.04253 13.67665,0.70109 3.27295,0.96431 3.97391,0.77256 8.28556,-2.26658 4.91513,-3.4645 6.6723,-6.93493 4.70906,-9.30048 -1.38297,-1.66638 -7.95235,-2.74214 -17.82004,-2.91809 -3.9875,-0.0711 -7.25,-0.28248 -7.25,-0.46973 0,-0.18724 1.15256,-2.30713 2.56124,-4.71086 2.44737,-4.17613 2.51539,-4.70001 1.53007,-11.7842 -1.0684,-7.68155 -0.51156,-17.31712 1.12079,-19.39395 0.51547,-0.65583 1.24532,-3.35583 1.62188,-6 l 0.68465,-4.80757 7.33319,-0.29568 c 9.06767,-0.36561 10.59515,0.599 9.71038,6.13209 -0.3459,2.16311 -1.5139,5.05802 -2.59555,6.43312 -1.08166,1.3751 -1.96665,3.11613 -1.96665,3.86895 0,0.75282 -0.9,3.04797 -2,5.10034 -1.16456,2.17281 -2,5.64208 -2,8.30524 0,2.51552 -0.66069,5.44719 -1.4682,6.51481 -2.3287,3.07883 -1.91628,6.30653 0.89603,7.01237 3.93121,0.98667 6.04138,-0.29901 8.37528,-5.10289 1.49533,-3.07783 2.19689,-6.38631 2.19689,-10.36024 0,-4.3242 0.5187,-6.49782 2,-8.38098 1.1,-1.39842 2.01407,-2.92161 2.03127,-3.38486 0.11039,-2.973 5.71751,-11.49742 10.41625,-15.83562 5.91064,-5.45713 7.40905,-9.87869 3.80248,-11.2205 -0.9625,-0.3581 -2.875,-1.44977 -4.25,-2.42594 -2.26471,-1.60781 -5.93527,-1.8024 -39,-2.06753 l -36.5,-0.29268 0,-2.5 c 0,-2.30691 0.34756,-2.49446 4.5,-2.42833 27.80004,0.44273 49.08803,0.67525 51.67327,0.5644 3.87361,-0.1661 9.32673,-4.51188 9.32673,-7.4328 0,-1.16542 -1.64674,-3.80536 -3.65943,-5.86654 -3.05086,-3.12437 -3.45095,-3.99881 -2.40577,-5.25817 0.73791,-0.88913 2.71593,-1.4556 4.80804,-1.37695 2.96751,0.11156 4.19853,-0.55694 7.45566,-4.04876 4.10374,-4.39943 4.14052,-5.69326 0.20436,-7.18978 -2.33003,-0.88588 -2.40286,-1.23711 -2.40286,-11.58865 0,-9.46349 -0.29472,-11.27746 -2.59671,-15.98257 -3.94012,-8.05331 -4.78159,-8.40482 -9.37731,-3.91722 -5.83914,5.70177 -7.02598,4.61679 -7.02598,-6.42301 0,-5.86152 0.5496,-10.38473 1.57242,-12.941 1.42989,-3.57365 1.42989,-4.20548 0,-6.97058 -0.86483,-1.6724 -1.57242,-3.77867 -1.57242,-4.6806 0,-2.73034 -5.31985,-9.41595 -7.5,-9.42547 -3.58319,-0.0156 -10.89779,9.62325 -13.05109,17.19823 -2.58773,9.10318 -5.47247,10.02306 -7.89817,2.51854 -0.79756,-2.46747 -1.62646,-3.25074 -3.44008,-3.25074 -2.46011,0 -3.5846,2.57292 -6.03251,13.80292 -0.45592,2.09161 -1.78503,4.82061 -2.95355,6.06445 -1.44646,1.53969 -2.1246,3.55841 -2.1246,6.32464 0,5.28782 -1.8359,6.90945 -6.12833,5.4131 -4.37648,-1.52565 -4.28445,-1.55997 -7.23567,2.69864 -2.16241,3.12036 -2.636,4.9288 -2.636,10.06574 0,6.78405 0.77704,8.88499 5.14665,13.91531 1.56934,1.80663 2.85335,3.91862 2.85335,4.69329 0,2.63946 3.76454,4.25095 8.80018,3.76709 3.53432,-0.3396 5.11499,-0.0523 6.07472,1.10408 2.22018,2.67516 0.27505,3.65074 -7.27893,3.65074 -9.56181,0 -10.79186,1.21296 -10.49605,10.35025 0.24976,7.71492 -0.9039,9.64975 -5.75375,9.64975 -4.0147,0 -5.36592,-2.21571 -2.96745,-4.86599 1.11687,-1.23412 1.62128,-3.66327 1.62128,-7.80776 0,-4.74628 0.42219,-6.39835 2,-7.82625 2.73901,-2.47877 2.54418,-3.84255 -1.5,-10.5 -1.925,-3.16889 -3.5,-6.61513 -3.5,-7.6583 0,-2.94341 -2.87353,-6.3417 -5.36242,-6.3417 -1.23696,0 -3.77387,1.125 -5.63758,2.5 0,0 -58.83777,32.23065 -58.83777,32.23065 -4.39124,2.33485 -4.62529,2.35846 -5.9452,0.59994 -0.87373,-1.16408 -1.20717,-3.38626 -0.9158,-6.10326 -3.66603,-35.76687 -11.03382,-72.15763 -38.09345,-97.46754 -3.8667,-3.04781 -2.8124,-5.40862 4.54222,-10.17103 10.99096,-6.23301 16.98816,-16.84239 24.86443,-26.03479 7.52443,-8.59322 10.29346,-9.49215 15.56794,-5.05397 66.35271,27.51394 168.48647,35.12127 236.94349,3.93492 4.35249,-2.5975 7.60694,1.3997 9.45799,5.11152 7.69455,14.13977 25.71005,21.79804 32.41615,36.39673 0,1.23595 -3.08953,5.40537 -7.5,10.1215 -14.77795,17.88477 -25.56592,51.51124 -28.70419,72.43533 -1.02346,17.44061 -1.75223,22.2693 -3.45992,22.9246 -2.10068,0.80611 -3.78422,-2.1476 -7.91393,-4.93803 -11.36956,-7.68236 -52.38224,-30.47195 -63.32969,-31.48657 -2.8209,0 -3.09276,0.28521 -3.09785,3.25 -0.008,4.81563 -1.919,10.96059 -4.16467,13.39364 -1.73187,1.87638 -1.91303,3.12316 -1.45303,10 0.28903,4.321 0.54751,8.59984 0.5744,9.50853 0.0269,0.9087 1.29243,2.08569 2.81233,2.61553 1.5199,0.52984 4.25995,2.22255 6.08899,3.76159 3.12611,2.63045 3.28679,3.07327 2.67958,7.38448 -0.98381,6.98509 -1.37335,7.77787 -4.44743,9.05119 -3.25361,1.34769 -11.08459,10.48556 -11.08459,12.93447 0,0.8966 -0.9,3.30939 -2,5.36175 -1.1,2.05237 -2,5.55113 -2,7.77503 0,2.22391 -0.93735,5.88082 -2.08299,8.12647 l -2.083,4.08301 3.41711,3.62715 c 4.84359,5.14133 7.74888,9.17525 7.74888,10.75914 0,0.74924 -1.575,3.1056 -3.5,5.23634 -2.25924,2.50071 -3.5,4.87523 -3.5,6.69816 0,1.67729 -1.0536,3.9238 -2.59456,5.53222 -2.31761,2.41906 -2.6871,3.86428 -3.46147,13.53906 -0.98028,12.24748 -0.35477,14.22508 5.32567,16.83738 1.7767,0.81706 6.15509,3.33518 9.72975,5.5958 29.29264,18.43985 64.76842,29.91007 93.73727,48.12547 0.862,0.7154 2.96139,1.75137 4.66531,2.30216 l 3.09803,1.00143 c -10.35532,68.92083 -72.26006,91.91225 -118.72566,136.07024 -6.24527,5.94704 -18.89416,19.87196 -20.03079,22.0515 -7.52268,14.9001 -10.23431,8.01268 -16.98477,-2.12174 C 284.3084,691.52454 222.53691,659.0562 196.27659,590.18999 c -0.57064,-5.3285 -0.39937,-6.75219 0.97796,-8.12952 0.91836,-0.91836 2.31131,-1.66975 3.09544,-1.66975 0,0 85.3242,-47.47745 85.3242,-47.47745 1.43399,-0.34243 4.89018,-2.17509 7.68043,-4.07258 2.79025,-1.89749 21.33869,-12.78863 21.33869,-12.78863 2.09683,-3.83844 2.29531,-5.11343 1.6643,-10.69087 -0.39405,-3.48297 -1.3599,-7.25131 -2.14632,-8.37408 -0.78642,-1.12277 -1.42985,-3.01117 -1.42985,-4.19645 0,-1.18528 -0.7101,-2.74438 -1.57801,-3.46468 -1.98886,-1.65061 -6.42199,-10.31326 -6.42199,-12.54902 0,-0.92414 1.575,-3.60234 3.5,-5.95154 4.01951,-4.90529 4.19239,-5.99267 1.5,-9.4347 -1.14203,-1.46001 -1.96478,-4.07656 -1.97776,-6.28984 -0.0122,-2.08441 -0.85839,-5.45941 -1.88034,-7.5 -1.02196,-2.04059 -2.14951,-4.92369 -2.50568,-6.40689 -0.35617,-1.4832 -3.81441,-6.11216 -7.68497,-10.28657 l -7.03739,-7.58983 0.29307,-7.20283 c 0.24921,-6.12491 0.57444,-7.25656 2.17324,-7.56183 2.70005,-0.51554 3.55985,1.54859 2.91457,6.99701 -0.5583,4.71394 -0.49268,4.84983 5.73157,11.87046 6.67537,7.52946 9.97369,12.76508 9.97369,15.83184 0,1.02782 0.96883,3.10043 2.15296,4.60581 1.18413,1.50537 2.49,4.37856 2.90193,6.38486 0.90185,4.39236 2.63486,9.47446 4.76317,13.96808 1.85244,3.91118 0.79573,5.13876 -4.44562,5.16442 -6.44485,0.0316 -6.53055,4.18015 -0.19645,9.50994 2.83225,2.38318 3.78503,2.63555 7.89291,2.09062 5.56374,-0.73806 15.21293,1.08001 14.64183,2.75877 -0.25682,0.7549 -3.42467,1.16094 -9.13034,1.17028 -7.06907,0.0116 -8.91333,0.32925 -9.66033,1.66405 -1.3606,2.43126 -0.15625,4.54366 3.27181,5.73869 2.68672,0.9366 2.94936,1.37106 2.30922,3.81988 -1.1853,4.5343 -1.38186,18.66372 -0.2784,20.01308 1.75529,2.14646 5.33548,1.37484 8.11973,-1.75 4.59733,-5.15972 9.65758,-3.09059 9.65758,3.94898 0,3.97121 1.99642,6.65011 4.29779,5.76699 0.72779,-0.27928 1.86171,-2.30496 2.51981,-4.5015 1.89782,-6.33436 8.28584,-9.26418 9.78353,-4.48715 0.30568,0.97497 1.51172,3.94077 2.6801,6.59066 z m -38.45591,6.18202 6.203,87.73515 c -1.25845,1.2482 0.57551,5.60689 3.10214,12.08962 1.74787,3.49028 1.9068,6.08705 1.81727,29.69362 l -0.0981,25.86887 2.54656,4.34537 c 1.97687,3.37328 2.41343,5.16578 1.95144,8.01269 -0.32732,2.01702 -0.32856,4.36197 -0.003,5.21099 0.86183,2.2459 3.39982,1.88928 4.7696,-0.67019 0.65166,-1.21763 1.31973,-5.60513 1.48459,-9.75 0.16487,-4.14486 0.59171,-10.12362 0.94854,-13.28612 0.64105,-5.68141 0.61802,-5.75 -1.93035,-5.75 -2.94797,0 -3.31239,-0.9957 -4.02588,-11 -0.25497,-3.575 -0.97223,-13.40653 -1.59391,-21.84784 -1.04821,-14.23269 -1.00124,-15.49049 0.64634,-17.31105 1.52722,-1.68755 1.57165,-2.0929 0.31645,-2.88685 -1.2552,-0.79395 -10.96024,-95.70573 -10.96024,-96.19812 0,-0.49239 -1.0125,-0.75144 -2.25,-0.57569 -1.66605,0.23662 -2.33755,1.09814 -2.58734,3.31955 l -0.33734,3 z m -22.5742,-3.17899 c 0,0 -52.25112,84.17899 -52.25112,84.17899 -3.70793,3.35563 -1.87595,9.99153 1.50839,12.36133 2.24118,1.56934 3.92903,0.28793 7.18837,-3.19632 0,0 41.36882,-68.80412 63.06064,-102.65933 -6.4153,3.28428 -12.97995,6.26098 -19.50628,9.31533 z M 258.88285,369.97089 c 4.14922,5.57147 7.1522,2.50716 10.84867,-0.94972 4.97782,-4.65518 4.95416,-6.20839 1.97824,-10.40294 -4.10409,-5.78472 -7.50075,-3.81994 -12.01954,-0.15647 -4.16889,3.3798 -4.97706,5.91017 -0.80737,11.50913 z M 327.62303,37.795847 c -0.36212,0.504077 2.00038,4.005692 5.25,7.781366 8.57608,16.456254 25.98213,24.486766 35.90841,38.26576 0,2.799353 -4.66206,1.674632 -9.6602,-2.330519 -7.66916,-6.145512 -27.3398,-26.64409 -27.3398,-28.490527 0,-2.065101 -7.47742,-10.330569 -10.0981,-11.16234 -2.85092,-0.904848 -12.19289,2.138613 -14.57977,4.749852 -2.24948,2.460923 -8.85844,13.614189 -13.79551,23.281283 -3.52261,6.897483 -7.94902,13.888659 -11.08,17.5 -1.19211,1.375 -3.42029,4.850553 -4.95152,7.72345 -2.30018,4.31559 -2.56386,5.488768 -1.51713,6.749998 1.87313,2.25699 3.04362,1.91136 7.16894,-2.116908 l 3.73124,-3.64345 13.63734,0.19726 c 7.50054,0.10849 14.83342,0.652 16.29528,1.2078 1.85043,0.70354 3.91854,0.6576 6.80731,-0.15121 3.03409,-0.84949 4.70054,-0.86679 6.19991,-0.06435 1.12779,0.60358 3.60771,1.09741 5.51093,1.09741 1.90323,0 6.32031,0.85252 9.81574,1.894488 3.49544,1.04197 8.76972,2.15191 11.72062,2.46654 3.07419,0.32777 7.13089,1.63722 9.5,3.06649 5.85736,3.53369 10.15566,3.39957 12.10904,-0.37786 0.83912,-1.62269 1.52568,-4.49144 1.52568,-6.374998 0,-7.123032 1.06246,-9.737153 4.21364,-10.367388 1.98242,-0.396485 3.24343,-1.440124 3.86399,-3.197917 33.7061,-53.479605 -8.92557,-86.43078594 -60.23604,-47.70423 z m 24.65841,-8.569387 c 9.75937,-6.473954 7.52068,-6.148386 9.09998,-4.569089 1.5793,1.579297 -1.44433,5.242165 -7.95261,9.633905 -3.96315,2.674309 -7.8102,5.59072 -8.549,6.480913 -1.84447,2.222456 -5.09837,2.090246 -5.09837,-0.207153 0,-2.378638 2.74063,-4.864622 12.5,-11.338576 z m -124.31882,818.7956 c -2.92536,-1.77982 -5.73097,-3.88747 -6.23469,-4.68368 -1.30587,-2.06412 -1.16307,-13.66658 0.20016,-16.2634 11.95389,-14.5791 17.14743,-32.49415 23.78202,-49.68426 1.3776,-2.66431 4.72574,-2.27041 8.01267,0.94265 49.59537,34.58426 128.44288,40.89131 174.87629,7.55735 1.6341,-1.375 3.66148,-2.5 4.5053,-2.5 2.62214,0 4.67609,2.98148 4.69931,6.82143 1.30791,16.38695 19.85711,38.88563 14.83151,55.49431 -2.40964,4.59174 -8.86959,11.3696 -12.53323,13.15003 -66.45195,28.86388 -148.97431,25.16208 -212.13934,-10.83443 z M 440.78144,773.8644 c 0,-0.69114 -2.12199,-3.78045 -4.71554,-6.86515 l -4.71555,-5.60853 -20.66201,0 c -22.23015,0 -23.4312,-0.27446 -22.73366,-5.19496 0.24492,-1.7277 2.08092,-3.18167 7.33035,-5.80504 63.45759,-26.52639 107.51651,-51.37514 153.49641,-116.27847 0,-0.47992 1.8,-3.95461 4,-7.72153 2.2,-3.76692 4,-8.04946 4,-9.51674 0,-1.46729 0.9,-3.81197 2,-5.21039 2.69756,-3.42939 2.52133,-8.38516 -0.5,-14.06072 -1.375,-2.58293 -2.50591,-5.14982 -2.51314,-5.70419 -0.007,-0.55438 -2.59473,-2.24612 -5.75,-3.75944 -7.43279,-3.56486 -17.99904,-3.96022 -20.00479,-0.74852 -0.74105,1.18661 -2.33202,2 -3.91196,2 -1.85036,0 -3.97774,1.37219 -6.97168,4.49685 -7.69932,8.03546 -7.22242,12.27363 2.10585,18.71434 8.72008,6.02078 15.54572,12.437 15.54572,14.61324 -31.59115,47.27108 -47.80146,71.35091 -146.74405,114.17557 -9.98585,4.88633 -20.03924,13.86959 -18.25595,18.07877 7.23348,25.25411 49.03116,11.11733 50,16.82526 0,2.00251 -3.11392,4.41938 -4.92101,5.09597 -53.31779,19.96261 -105.46057,15.06967 -155.88114,-11.38278 0.28049,-1.96546 0.80389,-2.09205 7.30215,-1.76605 9.89326,2.09803 36.57573,3.88365 36.98897,-11.46016 -0.8871,-15.58778 -15.29428,-19.09112 -25.98897,-25.39101 -45.08676,-17.26094 -82.82158,-49.88443 -114.5,-85.60418 0,-0.71512 -2.7,-4.34185 -6,-8.0594 -3.3,-3.71755 -6,-7.15558 -6,-7.64007 0,-0.48449 -0.9,-2.02506 -2,-3.42348 -1.1,-1.39842 -2,-3.11394 -2,-3.81227 0,-0.69833 2.3625,-2.61061 5.25,-4.24952 6.94519,-3.94201 18.77778,-16.21524 18.66863,-19.36385 -0.0448,-1.29098 -1.51032,-5.03067 -3.25683,-8.31043 -3.47125,-6.51868 -11.46968,-13.523 -15.45229,-13.53176 -10.19163,-3.26903 -17.63426,0.33444 -24.47719,5.43717 l 0.69128,12.44186 c 0.45776,8.23893 1.17859,13.13758 2.13384,14.5014 27.56253,66.37668 86.83688,103.74766 148.61815,134.61453 2.27504,0 8.21799,4.59033 10.06381,7.77327 2.99814,5.17 1.16884,5.72086 -19.14368,5.76474 -17.09463,-1.56822 -32.33818,4.29626 -34.09572,23.3947 -2.24926,13.23781 -7.06315,31.8233 -21.02741,35.71181 -1.72415,-0.34483 -4.12169,-1.77749 -5.68856,-2.63574 C 134.00415,772.18941 98.753025,727.74339 58.781445,650.39072 c -3.213747,-6.21922 -2.707408,-13.42744 1.265291,-19.20117 9.663226,-7.27242 26.288379,-21.33427 36.969509,-27.12949 4.473315,-1.91269 22.765195,-20.43938 22.765195,-23.05742 0,-6.45008 -20.987445,-15.25263 -24.705355,-10.36192 -0.52264,0.6875 -1.74264,3.39453 -2.71112,6.01563 -1.63369,4.42141 -1.64613,5.10239 -0.1722,9.42814 3.48934,10.24065 0.98528,13.48681 -6.85795,8.89037 -7.698661,-4.51171 -16.55337,-16.91721 -16.55337,-23.19137 0,-2.36715 2.605534,-9.16456 5.133618,-13.39277 0.493275,-0.825 1.677505,-3.15573 2.631623,-5.17941 1.053336,-2.23411 3.694982,-4.98375 6.725073,-7 2.744676,-1.82632 5.133706,-4.07453 5.308966,-4.99602 0.17525,-0.92149 -0.60789,-3.7093 -1.74032,-6.19514 -2.560217,-5.62003 -2.976705,-21.99208 -0.64072,-25.18673 2.24231,-3.06655 3.03925,-0.98868 3.66993,9.56863 0.36906,6.1779 1.1495,10.71057 2.09497,12.16721 0.82874,1.2768 1.76343,4.26889 2.07708,6.64908 0.31366,2.38018 1.23334,5.08018 2.04374,6 0.8104,0.91981 1.77288,3.08291 2.13884,4.80689 0.36823,1.73467 2.315935,4.65558 4.361285,6.54045 2.03275,1.87327 4.62076,4.70597 5.75112,6.29489 1.29558,1.82116 2.51167,2.60685 3.29017,2.12571 1.61265,-0.99667 0.46385,-12.44898 -1.472,-14.6743 -0.75536,-0.86831 -1.37338,-2.757 -1.37338,-4.19709 0,-2.33828 -3.53648,-10.21351 -5.89135,-13.11921 -2.21734,-2.73599 -7.108645,-12.84871 -7.108645,-14.69705 0,-3.34599 4.279605,-2.07749 5.499995,1.63023 0.55,1.67098 2.0125,4.31917 3.25,5.88486 1.2375,1.5657 2.25,3.23214 2.25,3.70321 0,0.47106 1.575,2.91985 3.5,5.44173 2.36093,3.09299 3.5,5.65551 3.5,7.8738 0,1.8087 0.88499,4.41363 1.96665,5.78873 1.08165,1.3751 2.2731,4.47329 2.64765,6.88486 0.37456,2.41157 1.28957,5.2723 2.03336,6.35718 0.74379,1.08487 1.35234,2.98154 1.35234,4.21481 0,1.23327 0.86875,2.70725 1.93055,3.27551 5.19134,2.77832 7.21429,-8.62512 2.5198,-14.2042 -1.87081,-2.22334 -2.39509,-3.73373 -1.96917,-5.67295 0.40104,-1.82593 -0.37809,-4.56112 -2.52061,-8.84867 -1.7056,-3.4132 -3.51947,-6.46439 -4.03083,-6.78043 -0.51136,-0.31604 -0.92974,-1.42069 -0.92974,-2.45478 0,-1.03409 -1.8,-3.9599 -4,-6.5018 -2.2,-2.5419 -4,-5.28855 -4,-6.10366 0,-1.80923 -8.72372,-11.29797 -11.498295,-12.50662 -1.10093,-0.47959 -3.26408,-1.88242 -4.807,-3.11739 -2.73438,-2.18864 -2.88278,-2.20093 -5.87035,-0.48631 -4.306856,2.4718 -5.82435,0.92421 -5.82435,-5.93985 0,-6.63301 1.810155,-7.8603 5.86442,-3.97607 1.50976,1.44645 3.27432,2.6299 3.92125,2.6299 1.95906,0 2.53739,-4.79017 1.67511,-13.87478 -0.45027,-4.74387 -0.91241,-12.00022 -1.02697,-16.12522 -0.11456,-4.125 -0.70903,-11.02006 -1.32105,-15.32236 -0.61202,-4.3023 -1.11276,-11.00197 -1.11276,-14.88817 0,-6.88296 0.10616,-7.18098 4.10253,-11.51653 l 4.10253,-4.45072 -0.72013,-16.66111 c -0.39608,-9.16361 -1.11722,-17.41903 -1.60253,-18.34537 -0.48532,-0.92634 -0.8824,-3.06384 -0.8824,-4.75 0,-2.51921 0.40111,-3.06178 2.25,-3.0435 1.2375,0.0122 3.375,0.90222 4.749995,1.97776 1.375,1.07554 2.8375,1.96553 3.25,1.97776 1.48433,0.044 0.70833,-8.0141 -1.28475,-13.34108 -1.8943,-5.06298 -1.96335,-6.35971 -1.00045,-18.78751 0.56886,-7.34204 1.31376,-15.33506 1.65534,-17.76226 0.34605,-2.45902 0.0582,-6.75944 -0.65017,-9.71209 l -1.27121,-5.29898 3.65062,-4.0408 c 3.24459,-3.59137 3.65062,-4.63721 3.65062,-9.40306 0,-3.84807 0.56476,-6.08024 2,-7.90485 1.1,-1.39842 2,-3.9935 2,-5.76683 0,-1.77333 0.9302,-4.72932 2.0671,-6.56887 1.25457,-2.02993 1.94246,-4.58099 1.75,-6.48991 -0.22072,-2.1893 0.23036,-3.48813 1.48416,-4.27339 1.50849,-0.94477 2.23989,-0.59843 4.5,2.13088 1.48431,1.79246 3.26527,3.25496 3.95769,3.25 0.69242,-0.005 2.71742,-2.19671 4.5,-4.87057 10.67323,-16.00979 19.64326,-26.13844 23.14844,-26.13844 0.82119,0 3.20296,-2.07079 5.29284,-4.60176 3.17262,-3.84224 14.35782,-12.38163 16.24861,-12.40507 0.30314,-0.004 1.56498,-1.49603 2.8041,-3.31617 1.93397,-2.84081 2.15699,-4.07862 1.57524,-8.74316 -1.70279,-13.65332 -0.89771,-15.99344 6.83093,-19.85548 3.38818,-1.6931 6.97642,-3.07836 7.97386,-3.07836 0.99744,0 3.96307,-0.95363 6.59028,-2.11918 2.62721,-1.16554 6.57675,-2.89996 8.77675,-3.85426 9.58667,-4.15842 13.39021,-5.88756 19.53549,-8.8811 6.42573,-3.13015 6.70508,-3.1725 16.63346,-2.52186 10.07907,0.66053 10.10114,0.65691 11.79649,-1.93051 2.64165,-4.03167 8.37043,-6.9368 14.38261,-7.29358 8.53427,-0.50645 10.50055,-3.44888 11.65077,-17.43474 l 0.70195,-8.53523 -3.51915,-4.21215 c -4.95634,-5.93236 -7.09041,-12.93684 -6.35169,-20.84763 0.58914,-6.30891 0.58033,-6.33642 -2.86949,-8.96773 -1.90324,-1.45167 -3.46044,-3.47317 -3.46044,-4.49221 0,-2.324218 4.27655,-11.424438 7.25395,-15.435958 8.1116,-10.928905 10.26782,-14.117416 12.6876,-18.761719 12.37939,-23.759937 14.44005,-26.607423 19.3555,-26.746072 0.66162,-0.01866 3.00295,-0.903394 5.20295,-1.966069 2.2,-1.062675 4.58171,-1.947406 5.2927,-1.966069 1.1355,-0.0298 6.04495,-3.492769 14.2073,-10.021363 58.0018,-28.6486299 91.92669,10.16925 57.97922,64.689894 -1.24655,1.959748 -1.14446,2.658798 0.92637,6.343348 1.91033,3.398968 2.21293,5.003108 1.68891,8.953338 -0.53256,4.01466 -0.21149,5.61553 1.93676,9.65666 1.41634,2.6643 3.66486,5.98196 4.99671,7.37256 3.45733,3.60985 4.55811,7.65103 3.66955,13.47163 -1.0157,6.65343 0.52544,13.27237 3.55207,15.2555 2.6568,1.7408 5.6514,7.10027 6.71165,12.01188 0.45974,2.12979 1.65913,3.76063 3.44487,4.68407 1.50675,0.77917 3.30298,2.09556 3.99162,2.92532 0.68863,0.82975 5.49124,3.61249 10.67246,6.18386 9.35927,4.64489 9.46788,4.67078 16.73594,3.98971 7.87923,-0.73835 8.21244,-0.6552 24.30158,6.06379 4.45924,1.86223 8.75804,3.38587 9.55289,3.38587 0.79486,0 5.05182,1.74413 9.45993,3.87583 5.7485,2.77992 8.97334,5.08618 11.40494,8.15633 3.33298,4.20823 3.39192,4.45343 3.49173,14.52502 0.0994,10.03071 0.16811,10.32037 3.29216,13.87847 1.75485,1.99867 3.19064,4.06828 3.19064,4.59915 0,0.53086 0.87844,0.9652 1.95209,0.9652 1.07365,0 4.87105,2.0405 8.43867,4.53444 5.11896,3.57841 7.02935,4.39822 9.0609,3.88834 3.09943,-0.77791 5.54834,0.97516 5.54834,3.97182 0,1.18234 1.27529,3.71474 2.83399,5.62756 1.55869,1.91281 4.54282,7.07784 6.63139,11.47784 5.25682,11.07458 10.19275,17.69076 12.90889,17.30327 1.2978,-0.18515 2.24648,-1.15132 2.43576,-2.48065 0.17052,-1.19756 0.95802,-2.71516 1.75,-3.37244 1.97422,-1.63846 4.43997,0.46418 4.43997,3.78611 0,1.37027 0.94475,4.35267 2.09945,6.62756 1.1547,2.27488 2.9547,5.8003 4,7.83427 1.0453,2.03396 1.90055,5.0558 1.90055,6.7152 0,1.97037 1.1139,4.28575 3.21073,6.6739 3.78601,4.31203 4.63542,9.54598 4.77335,29.41278 0.0616,8.86752 0.50209,13.2265 1.51592,15 0.972,1.70033 1.4545,5.85862 1.50846,13 0.0528,6.98737 0.60288,11.83815 1.64433,14.5 0.86076,2.2 2.1286,8.05 2.81743,13 0.68883,4.95 1.97865,10.6463 2.86626,12.65844 1.39211,3.15578 1.61545,8.89156 1.62555,41.7463 0.0109,35.66163 -0.11487,38.40897 -1.97517,43.12858 -1.09277,2.7724 -1.98686,6.83818 -1.98686,9.03509 0,6.03317 2.2122,6.13236 8.07077,0.36188 3.63656,-3.58187 5.2091,-4.55042 6.03962,-3.7199 0.62511,0.62511 1.33961,5.97736 1.61176,12.07352 0.42935,9.61748 0.23254,11.53009 -1.61664,15.71047 -1.37341,3.10481 -2.10551,6.83399 -2.10551,10.72501 0,4.45096 -0.50768,6.61056 -2,8.50774 -1.27157,1.61654 -1.9954,4.04139 -1.98738,6.65773 0.0114,3.72248 0.52917,4.56814 5.42618,8.86262 8.94325,7.84286 13.03463,19.86237 9.10642,26.75252 -0.78392,1.375 -2.12746,4.01788 -2.98565,5.87307 -0.8582,1.85519 -4.58218,6.26396 -8.27551,9.79728 -5.62163,5.37807 -7.20422,6.3758 -9.71841,6.12693 -2.04673,-0.2026 -3.48645,-1.1622 -4.52036,-3.01292 -1.37519,-2.46163 -1.35473,-2.99051 0.21881,-5.65429 1.16104,-1.9655 1.7359,-5.05853 1.7359,-9.34008 0,-5.2715 -0.44482,-7.00435 -2.52007,-9.81719 -1.38603,-1.87866 -3.19668,-3.79441 -4.02367,-4.25721 -2.68779,-1.50417 -16.24787,8.04695 -19.0112,13.39066 -1.40009,2.70748 -1.29851,2.99852 2.80108,8.02544 2.33962,2.86885 6.35001,6.37534 8.91198,7.7922 2.56196,1.41686 5.52239,3.36361 6.57874,4.32611 1.05634,0.9625 2.37581,1.75 2.93216,1.75 0.90353,0 5.41346,2.2225 17.24831,8.5 5.75689,3.0536 14.57063,11.18315 19.05451,17.57537 4.70666,6.7098 5.25373,11.60199 2.00869,17.9628 -1.29329,2.53505 -1.79303,4.86069 -1.38976,6.46744 0.41052,1.63565 -0.006,3.46363 -1.19629,5.25168 -30.54675,58.4154 -90.35835,119.21085 -154.67615,148.24271 -0.51129,0 -2.2666,1.125 -3.9007,2.5 -15.91036,11.74712 -22.53968,-36.50287 -24.81763,-45.02632 z m -88,-8.5929 c 11.84894,-21.34082 30.90715,-35.98836 48.63619,-51.91402 23.45603,-21.3639 91.18716,-58.5336 98.36381,-98.61897 0,-1.62758 1.125,-4.48408 2.5,-6.34779 2.01573,-2.73217 2.50128,-4.56159 2.50659,-9.44428 0.005,-4.1753 0.5732,-6.91501 1.83132,-8.823 1.68165,-2.55028 1.79143,-4.89219 1.40005,-29.86482 -0.36547,-23.31877 -0.69057,-27.87034 -2.33133,-32.63927 -10.91786,-37.46161 -17.17578,-73.74312 -23.85073,-111.72863 -1.64528,-7.65422 -0.82622,-26.2611 1.43062,-32.5 -4.08558,-14.1943 14.50663,-41.21296 16.51348,-54.45422 0,-1.22969 0.95502,-3.09305 2.12228,-4.14079 1.16725,-1.04775 3.39804,-4.15499 4.9573,-6.90499 1.55927,-2.75 5.10425,-7.23308 7.87773,-9.96241 5.1683,-5.08602 6.26546,-8.27789 3.60449,-10.4863 -0.79101,-0.65648 -3.37851,-3.92902 -5.75,-7.27232 -2.37149,-3.3433 -8.31851,-10.27274 -13.2156,-15.39875 -4.89709,-5.12601 -10.52209,-11.7367 -12.5,-14.69043 -1.97791,-2.95372 -5.89946,-7.94062 -8.71455,-11.082 l -5.11835,-5.7116 -5.10768,0.67755 c -78.50275,28.11548 -170.75539,31.81098 -247.14612,-4.40859 -1.61068,-1.19083 -3.56054,-2.16515 -4.33301,-2.16515 -1.52173,0 -6.08822,6.18585 -7.10328,9.62222 -0.34478,1.16722 -9.2773,10.60996 -19.85004,20.98388 -20.74944,20.35922 -23.72317,23.7158 -23.72317,26.77732 0,1.09717 1.55116,3.59725 3.44702,5.55572 5.70779,5.8963 12.55298,13.72928 12.55298,14.36443 0,0.32789 1.3466,2.59145 2.99244,5.03012 13.87865,21.78937 20.91257,46.32621 20.96367,71.87647 -0.0331,13.77582 -0.41597,19.27706 -1.55144,22.28984 1.04308,24.31455 -17.52219,57.62381 -18.39808,80.29966 -6.84736,29.75087 -10.87068,59.21022 -5.67721,89.70034 9.78899,50.16705 44.03631,83.2923 81.19941,115.59765 27.55631,20.95785 53.70305,43.74857 77.72121,68.73075 9.37622,15.92719 5.44253,8.19449 13.75,-2.94762 z m -5.57143,-38.45221 c 3.17861,-3.17861 1.17044,-9.42857 -3.0295,-9.42857 -3.21461,0 -6.0729,1.52202 -7.35414,3.91604 -0.76227,1.42432 -0.51201,2.49174 1.04966,4.47709 2.36259,3.00354 6.86627,3.50315 9.33398,1.03544 z m 28.02958,-191.89876 c -5.92602,-5.50407 -7.9321,1.22716 -3.94763,5.49053 74.54324,92.27836 83.49882,91.29007 3.94763,-5.49053 z m 34.47376,-169.43418 c 13.42729,-23.16521 22.31552,-43.39164 36.98736,-65.92876 2.00824,-3.08482 6.53868,-1.87618 8.8513,-0.40659 2.34513,1.49025 3.64602,5.0996 1.29969,9.6963 -3.32111,6.5064 -6.37564,13.74847 -9.07026,20.81629 -2.26574,5.9429 -2.93733,11.48804 1.36114,13.46344 2.48992,1.14426 6.48554,-0.10148 8.33097,-5.36412 3.25859,-9.29253 11.0672,-23.39717 14.86942,-33.87703 1.32216,-3.64421 0.28469,-8.28116 -0.68372,-10.8109 -3.07072,-8.02155 -20.36655,-18.87204 -30.58548,-5.72054 -14.83999,19.09869 -25.48217,40.35009 -41.78205,65.11045 -2.81214,4.27179 -1.61261,10.40306 1.73972,13.06236 3.734,2.96207 6.82704,3.15918 8.68191,-0.0409 z m -159.89914,-6.95669 c 0,0 25.28862,-15.35921 25.28862,-15.35921 0,0 -9.13927,-0.4359 -9.13927,-0.4359 0,0 -27.34665,16.02075 -27.34665,16.02075 0,0 11.1973,-0.22564 11.1973,-0.22564 z m 6.00775,-17.2144 c 0,0 -32.28494,-46.73144 -32.28494,-46.73144 l -8.0407,6.80364 c 0,0 30.59499,46.37651 30.59499,46.37651 0,0 9.73065,-6.44871 9.73065,-6.44871 z m -42.58008,-43.35692 c 0,0 7.79058,-6.72704 7.79058,-6.72704 0,0 -11.11498,-10.96866 -13.17805,-8.59434 -2.06308,2.37432 5.38747,15.32138 5.38747,15.32138 z m 118.6236,171.50548 c -0.83517,-0.52864 -1.51645,-2.88084 -1.66097,-5.73468 -0.13477,-2.66113 -0.54809,-6.41342 -0.9185,-8.33842 -0.97859,-5.08574 -7.1582,-17.3962 -11.10227,-22.11694 -3.04682,-3.64681 -4.60961,-8.88146 -2.6523,-8.88405 0.4125,-5.5e-4 5.25,-0.1899 10.75,-0.42077 11.77911,-0.49446 13.97769,0.42359 13.51611,5.64386 -0.1594,1.80284 -0.24711,5.3029 -0.19491,7.7779 0.0522,2.475 0.0872,9.0134 0.0779,14.52977 -0.009,5.51637 0.44257,11.23865 1.00433,12.71618 0.79518,2.09149 0.6817,3.02608 -0.51245,4.22023 -1.68791,1.68791 -6.09092,2.00961 -8.30692,0.60692 z m -2.61111,-81.1169 c -0.35481,-0.5741 -0.14603,-1.64517 0.46396,-2.38016 0.83166,-1.00209 4.79282,-1.34295 15.83609,-1.36273 14.9939,-0.0269 18.38068,0.69169 16.11691,3.41937 -1.4183,1.70895 -31.37594,2.00792 -32.41696,0.32352 z m 91.68144,329.82668 c 39.24648,-13.71943 71.53265,-39.35205 96.45517,-73.38639 2.80562,-4.22317 3.39018,-6.03437 3.38881,-10.5 -0.001,-4.60985 -0.54991,-6.18669 -3.76285,-10.81744 -2.06866,-2.98152 -4.30778,-5.60314 -4.97583,-5.82583 -1.58208,-0.52736 -6.25967,4.5328 -6.25967,6.77165 -17.147,39.88872 -58.54036,60.06763 -89.25,87.77592 -6.25021,6.4861 -7.6857,8.93017 -6.1481,10.46777 0.68497,0.68498 6.59392,-1.82682 10.55247,-4.48568 z M 257.78144,706.41336 c -38.53624,-32.05327 -55.32537,-56.08358 -80.64551,-89.02264 -2.21569,0 -12.35449,10.00769 -12.35449,12.19472 0,2.57825 2.59939,7.43757 4.3348,8.10351 0.77482,0.29733 2.458,2.71436 3.74041,5.37118 24.17735,30.22659 51.92875,53.56701 85.68316,71.33442 19.50635,13.43797 14.27821,0.51085 -0.75837,-7.98119 z m 344.97172,-108.9698 c 0.57315,-1.07093 2.87544,-4.06543 5.11622,-6.65444 3.90939,-4.51695 4.0564,-4.93355 3.63563,-10.30285 -0.55865,-7.12887 -2.91052,-13.28945 -5.60591,-14.68433 -1.15714,-0.59883 -2.92992,-1.83633 -3.93951,-2.75 -1.0096,-0.91367 -2.4752,-1.65907 -3.25689,-1.65644 -2.3131,0.008 -9.14372,6.82737 -8.26051,8.24719 7.30971,11.75086 7.33925,11.83247 7.33925,20.27253 0,4.47819 0.3,8.44217 0.66667,8.80883 1.26008,1.26009 3.26444,0.66392 4.30505,-1.28049 z m -74.34647,-21.71301 4.12526,-3.83983 -0.51128,-7.82038 c -0.45047,-6.89033 -0.25725,-8.16397 1.62475,-10.70951 1.17481,-1.58902 2.13602,-3.33324 2.13602,-3.87604 0,-0.5428 -1.575,-3.67425 -3.5,-6.95876 -2.28752,-3.90306 -3.5,-7.24923 -3.5,-9.65922 0,-2.51297 -0.82888,-4.67244 -2.60249,-6.78027 -2.247,-2.67041 -2.52101,-3.7146 -2.00591,-7.64435 0.46722,-3.56452 0.16561,-5.202 -1.39092,-7.55147 -1.09313,-1.65 -1.99047,-3.70007 -1.99409,-4.55572 -0.004,-0.85565 -1.13159,-3.08057 -2.50659,-4.94428 -1.9438,-2.63467 -2.50788,-4.62461 -2.53544,-8.94428 -0.0195,-3.05565 -0.67854,-6.68072 -1.46456,-8.05572 -1.04923,-1.83543 -1.43855,-6.27985 -1.46456,-16.71921 -0.0311,-12.46981 -0.29454,-14.7163 -2.14143,-18.25963 -2.73258,-5.24258 -1.98528,-8.62257 2.10505,-9.52095 1.65052,-0.36252 3.05901,-1.18587 3.12999,-1.82967 0.40779,-3.69901 -0.52268,-11.36839 -1.72975,-14.25731 -0.76962,-1.84195 -1.3993,-5.65097 -1.3993,-8.4645 0,-2.81353 -0.91558,-8.70149 -2.03463,-13.08436 -1.87888,-7.35887 -1.92175,-8.36674 -0.56005,-13.16662 0.81102,-2.85876 1.83911,-7.44425 2.28463,-10.18998 1.0524,-6.4858 2.96297,-6.83241 8.11376,-1.47196 3.36616,3.50316 4.29055,3.98411 5.95026,3.09586 1.86741,-0.99941 1.96448,-2.20804 1.95504,-24.34165 -0.01,-22.27156 0.0889,-23.47669 2.25126,-27.55876 1.83625,-3.46652 2.13572,-5.15788 1.5935,-9 -0.95881,-6.7941 -1.46417,-8.11294 -3.53302,-9.22016 -1.87504,-1.00349 -4.10977,0.98077 -17.6806,15.69891 -17.61782,22.76475 -24.06859,52.99208 -23.59289,80.65588 2.29465,29.96642 10.32131,62.2119 18.24615,85.72756 0.004,1.9764 0.90659,6.20934 2.00659,9.40655 1.13967,3.31251 2.00283,8.43429 2.00659,11.90655 0.005,4.39838 0.55928,6.92799 1.99341,9.09345 1.46359,2.20995 1.99195,4.71177 2.00631,9.5 0.0107,3.575 0.85381,9.2 1.87353,12.5 1.52588,4.93806 1.78704,8.42215 1.47557,19.68522 -0.36276,13.11731 -0.28858,13.74818 1.78767,15.20244 2.56314,1.7953 3.74822,1.2894 9.48217,-4.04783 z m 19.12667,-0.58983 c 0.54825,-0.6875 1.22689,-2.6 1.5081,-4.25 0.28121,-1.65 1.07659,-4.37029 1.76753,-6.0451 1.13308,-2.74655 0.996,-3.45734 -1.3982,-7.25 -4.86302,-7.70353 -7.62935,-4.79216 -7.62935,8.02936 0,8.16453 0.86441,10.76574 3.57756,10.76574 0.64765,0 1.62612,-0.5625 2.17436,-1.25 z m 31.85709,-2.5269 c 6.7403,-5.90364 16.39099,-20.67377 16.39099,-25.08598 0,-1.51171 1.125,-4.27341 2.5,-6.13712 1.95464,-2.64937 2.50259,-4.6005 2.51187,-8.94428 0.007,-3.05565 0.67619,-8.03072 1.48813,-11.05572 2.08383,-7.76357 1.96692,-11 -0.39738,-11 -10.41861,0 -40.10262,30.00415 -40.10262,40.53513 0,1.2928 -0.92944,3.92584 -2.06543,5.85119 -1.64527,2.78853 -1.84154,3.91899 -0.96482,5.55716 1.67088,3.12206 3.64592,2.47431 5.3362,-1.7501 0.83771,-2.09364 2.27167,-4.42787 3.18659,-5.18719 0.91491,-0.75931 2.71934,-3.43383 4.00984,-5.94338 1.29049,-2.50954 6.42704,-8.60009 11.41454,-13.53455 8.53213,-8.44138 9.1686,-8.87131 10.76692,-7.27299 1.59833,1.59833 1.28842,2.13568 -5.24255,9.09021 -3.81771,4.06531 -8.57013,10.03816 -10.56094,13.27299 -3.15491,5.12639 -3.70517,6.97897 -4.28574,14.42912 -0.85673,10.99387 0.20656,12.26244 6.0144,7.17551 z m -412.54327,-0.25828 c -3.48442,-31.35832 6.92572,-70.93275 13.93426,-93.66629 9.70116,-29.98902 15.73442,-54.1603 15.79479,-87.29853 3.65364,-36.26749 -6.09451,-38.1937 -16.12876,-66 -0.32805,-1.375 -3.78333,-5.7625 -7.6784,-9.75 -7.68974,-7.87221 -11.01631,-9.08577 -14.4637,-5.27645 -1.57118,1.73614 -1.69555,3.08949 -1.03383,11.25 0.41371,5.10205 0.70287,18.17187 0.64257,29.04405 -0.0904,16.29347 -0.39043,20.19616 -1.70735,22.20603 -1.79422,2.73833 -1.20136,4.52637 1.50081,4.52637 2.01803,0 6.38139,-6.01926 7.43023,-10.25 0.37496,-1.5125 1.24804,-2.75 1.94017,-2.75 1.86804,0 6.70273,11.88825 6.71018,16.5 0.004,2.3083 0.84674,5.26877 1.99329,7 1.09275,1.65 1.98682,4.35 1.98682,6 0,1.65 -0.89407,4.35 -1.98682,6 -1.09275,1.65 -1.98979,4.51373 -1.99341,6.36385 -0.004,1.85011 -0.96982,5.22511 -2.1471,7.5 -5.18643,10.02186 -5.85949,11.47993 -5.85949,12.69356 0,0.70681 -0.74666,2.11016 -1.65925,3.11856 -0.91259,1.0084 -2.0134,3.74383 -2.44626,6.07874 -0.43286,2.33491 -1.08865,5.48279 -1.45733,6.99529 -0.83387,3.42098 0.4462,3.51421 3.9293,0.28618 1.46218,-1.35511 3.21539,-2.23598 3.89603,-1.9575 2.61819,1.07122 5.00585,5.84816 5.64886,11.30152 0.36863,3.12639 1.43938,6.78245 2.37944,8.12458 2.52249,3.60135 2.34885,13.91233 -0.29079,17.26809 -1.29893,1.65132 -2.00231,4.06471 -2.00659,6.88486 -0.004,2.64996 -0.78091,5.51145 -1.99341,7.34227 -1.09275,1.65 -1.98979,3.62842 -1.99341,4.39649 -0.007,1.38931 -3.67095,7.42762 -11.10833,18.30465 -2.14404,3.13563 -3.89826,5.98886 -3.89826,6.34051 0,0.35165 -2.025,3.00965 -4.5,5.90667 -2.475,2.89702 -4.5,5.78292 -4.5,6.41312 0,0.63019 0.9,2.82501 2,4.87738 2.50928,4.68177 2.50928,6.97229 0,10.76118 -1.09275,1.65 -1.98979,3.79361 -1.99341,4.76357 -0.004,0.96996 -0.53727,2.61332 -1.18587,3.6519 -1.61567,2.5871 1.28387,7.08453 4.56747,7.08453 1.28815,0 3.41528,0.8381 4.72695,1.86244 1.31167,1.02434 3.33801,2.16083 4.50298,2.52553 1.16496,0.3647 2.9222,1.5516 3.90498,2.63756 2.08068,2.29912 2.02376,2.28735 4.54264,0.93929 z m -27.52387,-19.38838 c 2.03274,-3.10236 1.57169,-9.48957 -0.79187,-10.97005 -2.13244,-1.33571 -4.22277,-0.19887 -6.47428,3.52109 -1.49222,2.46548 -1.45223,2.85085 0.64856,6.25 2.61612,4.23298 4.41596,4.55907 6.61759,1.19896 z m 408.85114,-14.15823 c 1.22193,-3.18428 0.55613,-9.59758 -1.39301,-13.41821 -1.1,-2.15618 -2,-5.02872 -2,-6.38344 0,-1.35471 -1.125,-3.8001 -2.5,-5.43419 -1.375,-1.6341 -2.5,-4.09769 -2.5,-5.47465 0,-1.37697 -1.11958,-4.46201 -2.48795,-6.85565 -3.01859,-5.28028 -3.28774,-8.85207 -0.66704,-8.85207 2.36188,0 4.80284,2.7135 5.70995,6.34748 0.39093,1.56611 2.22599,4.8325 4.07791,7.25865 1.92575,2.52286 3.36873,5.58468 3.37087,7.15252 0.004,2.90626 3.34556,9.24135 4.87457,9.24135 1.29752,0 2.12169,-2.60651 2.12169,-6.71006 0,-3.26439 -4.80543,-13.43362 -6.98436,-14.78028 -0.47397,-0.29293 -1.14325,-1.81419 -1.48729,-3.38059 -0.34404,-1.56639 -1.99648,-4.14873 -3.67209,-5.73853 -1.67562,-1.5898 -3.90597,-4.70233 -4.95634,-6.91674 -1.05038,-2.21441 -4.88058,-7.08595 -8.51156,-10.82564 -3.63098,-3.7397 -6.92363,-8.00291 -7.31699,-9.47381 -0.78808,-2.94687 -3.84501,-4.13914 -5.18623,-2.02274 -1.61409,2.54698 -0.96522,11.7711 1.11486,15.84839 1.1,2.15618 2,4.8475 2,5.98072 0,1.84449 5.09776,13.64967 9.94028,23.01928 0.9949,1.925 2.13452,5.075 2.53248,7 0.39796,1.925 1.28835,4.4 1.97865,5.5 0.69031,1.1 1.57793,4.16567 1.9725,6.8126 1.36278,9.14195 8.00926,17.21287 9.9691,12.10561 z M 143.78144,522.9742 c 4.675,-5.17334 9.85,-11.50339 11.5,-14.06678 4.52331,-7.02725 9.32703,-15.85432 9.41863,-17.30719 0.0447,-0.70977 0.97165,-2.50977 2.05977,-4 1.58249,-2.16729 2.01376,-4.51057 2.15508,-11.70951 0.0972,-4.95 -0.17053,-12.0375 -0.5949,-15.75 -0.69753,-6.10224 -0.98725,-6.75 -3.01908,-6.75 -2.21387,0 -4.186,2.33592 -9.35995,11.08653 -1.16633,1.97259 -4.49187,5.84159 -7.39008,8.59778 -10.76172,10.23439 -14.76922,15.12246 -14.77606,18.02285 -0.004,1.53606 -0.90066,4.14284 -1.99341,5.79284 -2.45573,3.70803 -2.74396,11.27729 -0.46275,12.15267 1.801,0.69111 5.46275,-2.29491 5.46275,-4.45467 0,-0.82061 1.48709,-3.33836 3.30464,-5.59501 1.81756,-2.25664 4.53671,-6.2408 6.04257,-8.85369 3.25025,-5.63968 6.37162,-8.7493 8.78233,-8.7493 3.18903,0 2.91219,1.74364 -1.13121,7.1249 -2.19908,2.9267 -3.99833,5.73306 -3.99833,6.23636 0,0.50329 -1.8,2.86785 -4,5.25457 -2.2,2.38671 -4,4.94354 -4,5.68183 0,0.73829 -1.52985,3.12963 -3.39966,5.31409 -4.32053,5.04756 -8.95103,15.85484 -8.15394,19.03072 1.17204,4.66979 4.53955,2.91592 13.5536,-7.05899 z m 424.02278,-16.58348 c 1.55007,-3.15419 3.9869,-11.60003 3.98217,-13.80188 -0.003,-1.26604 0.87375,-3.96604 1.94773,-6 3.38006,-6.40141 6.04732,-12.76911 6.04732,-14.43712 0,-2.1988 4.81958,-7.761 6.72482,-7.761 2.42555,0 0.87697,8.4961 -2.21926,12.17577 -1.37806,1.63772 -2.50556,3.98215 -2.50556,5.20983 0,1.22768 -0.66069,3.10565 -1.4682,4.17327 -0.8075,1.06762 -1.4825,3.63161 -1.5,5.69774 -0.0232,2.73552 -0.71133,4.34746 -2.5318,5.93034 -2.73188,2.37534 -3.41451,7.49854 -1.28311,9.62994 0.95585,0.95585 2.45729,-0.12743 6.99935,-5.05 4.78344,-5.18417 5.78258,-6.88121 5.78311,-9.82261 4.1e-4,-2.22169 0.9386,-4.82703 2.50065,-6.94428 2.18101,-2.95619 2.49924,-4.41645 2.49401,-11.44428 -0.0112,-15.0834 -1.11477,-24.55572 -2.86078,-24.55572 -1.64768,0 -12.13323,9.78404 -12.13323,11.32148 0,0.4894 -1.1635,2.27254 -2.58555,3.96256 -3.09041,3.67275 -8.41445,14.63203 -8.41445,17.32076 0,1.05111 -1.125,4.02442 -2.5,6.60735 -1.91066,3.58916 -2.5,6.19218 -2.5,11.04204 0,6.42243 1.1951,9.05368 3.872,8.525 0.7775,-0.15356 1.74535,-0.95419 2.15078,-1.77919 z m -452.0264,-8 c 3.16432,-6.67817 3.90774,-9.40621 4.2954,-15.76229 0.35265,-5.78189 0.0623,-7.97251 -1.42442,-10.74637 -1.02705,-1.91625 -1.86736,-5.22504 -1.86736,-7.35286 0,-2.25318 -0.77775,-4.86467 -1.86244,-6.25362 -1.02434,-1.31167 -2.19755,-3.45371 -2.60713,-4.76008 -0.40958,-1.30637 -3.14045,-4.9812 -6.06859,-8.16629 -2.92815,-3.1851 -6.0415,-7.17875 -6.918545,-8.87478 -0.87706,-1.69604 -2.20561,-3.08371 -2.95234,-3.08371 -2.0029,0 -2.56489,3.30232 -2.55271,15 0.0081,7.77379 0.52383,12.03323 1.98635,16.40523 1.08647,3.24787 1.97541,8.08537 1.97541,10.75 0,3.56037 0.54679,5.39156 2.0625,6.90727 4.574705,4.57471 5.961615,0.40381 2.974705,-8.94601 -2.906005,-9.09663 -2.65553,-17.11649 0.5346,-17.11649 1.82977,0 3.42819,3.20279 3.42819,6.86916 0,1.65035 0.50472,4.26744 1.1216,5.81574 0.61688,1.54831 1.26823,8.59049 1.44744,15.6493 0.32919,12.96661 1.17639,16.0614 4.23182,15.45869 0.81662,-0.16109 1.80461,-0.96789 2.19552,-1.79289 z m 439.96844,-15.93426 c 1.41484,-2.64366 1.30719,-10.39373 -0.16482,-11.86574 -1.93754,-1.93754 -4.50552,-1.38982 -6.72742,1.43486 -2.59912,3.30425 -2.59765,4.77949 0.009,8.99711 2.32704,3.76523 5.30367,4.38525 6.88326,1.43377 z m -420.55371,-7.14247 c 3.10698,-3.69244 3.27492,-6.23724 0.58889,-8.92327 -5.51394,-5.51394 -12.32352,1.60612 -8.53774,8.92701 2.03166,3.92882 4.64086,3.92759 7.94885,-0.004 z m 408.38622,-21.97545 c 0.18522,-1.58983 -0.47465,-3.25081 -1.75,-4.40498 -2.14108,-1.93766 -2.66743,-6.01417 -1.09705,-8.49663 0.78805,-1.24576 1.28647,-1.25747 3.48318,-0.0818 1.40994,0.75457 2.6892,1.18378 2.84279,0.95378 0.845,-1.2653 5.01843,-11.76498 5.46339,-13.74499 0.32117,-1.42922 -0.23581,-3.35804 -1.44385,-5 -1.0817,-1.47025 -2.26547,-3.87534 -2.6306,-5.34464 -0.98489,-3.96327 -28.59578,-31.54833 -29.75129,-29.72346 -0.4858,0.7672 -0.8872,7.91992 -0.892,15.89492 -0.008,12.8035 0.22374,14.851 1.9781,17.5 1.09275,1.65 1.99979,4.125 2.01565,5.5 0.0159,1.375 0.90881,3.625 1.98435,5 1.07554,1.375 1.96553,2.99062 1.97776,3.59028 0.0122,0.59965 1.43421,3.97465 3.15996,7.5 5.59401,11.42744 13.87839,17.56321 14.65961,10.85754 z m -5.59733,-17.14782 c -2.69491,-2.69491 -0.34902,-8.99849 2.47621,-6.65376 1.41531,1.1746 1.70389,3.69966 0.7168,6.27197 -0.72625,1.89259 -1.58012,1.99468 -3.19301,0.38179 z m 23.97126,17.54501 c 1.43751,-1.30093 1.82874,-3.14195 1.82874,-8.60564 0,-5.95508 0.35809,-7.37622 2.5,-9.92174 1.375,-1.63409 2.51595,-3.94905 2.53544,-5.14436 0.0195,-1.1953 0.67854,-3.29827 1.46456,-4.67327 0.78602,-1.375 1.44508,-3.5125 1.46456,-4.75 0.0195,-1.2375 0.88828,-3.10284 1.93065,-4.14521 1.04236,-1.04236 2.50829,-3.17436 3.25761,-4.73777 1.53015,-3.19255 4.84718,-4.47787 4.84718,-1.87824 0,3.39107 -3.3779,12.10867 -5.64401,14.56594 -1.40936,1.52824 -2.35599,3.7895 -2.35599,5.62787 0,1.69024 -0.675,4.68866 -1.5,6.66317 -1.58248,3.78742 -2.09263,16.65424 -0.6603,16.65424 0.46183,0 4.28683,-3.61082 8.5,-8.02404 l 7.6603,-8.02403 0.0844,-7.22597 c 0.32127,-27.49956 10e-4,-33.08477 -2.0112,-35.09718 -1.71068,-1.71068 -2.18243,-1.78304 -3.65532,-0.56064 -0.93014,0.77194 -2.55861,3.43491 -3.61883,5.9177 -1.06021,2.48279 -2.97952,5.63916 -4.26513,7.01416 -3.62324,3.87518 -11.40083,19.31175 -12.16924,24.15289 -0.3795,2.39091 -1.54108,5.50298 -2.58129,6.91571 -2.74109,3.72271 -2.78254,16.9314 -0.0531,16.9314 0.33673,0 1.43517,-0.74474 2.44098,-1.65499 z m -436.01556,-5.09501 c 2.45419,-2.93027 6.84471,-12.30003 6.83771,-14.59229 -0.004,-1.18674 -0.90066,-3.50771 -1.99341,-5.15771 -1.09275,-1.65 -1.98979,-3.63142 -1.99341,-4.40316 -0.0162,-3.44427 -6.35402,-14.27313 -12.64007,-21.59684 -3.77659,-4.4 -7.66176,-9.719 -8.63373,-11.82001 -1.214,-2.62419 -2.30964,-3.71592 -3.5,-3.48751 -1.53176,0.29392 -1.76504,1.9943 -2.01078,14.65669 -0.25092,12.92983 -0.0806,14.64362 1.75,17.60555 1.1154,1.80474 2.02799,4.25866 2.02799,5.45315 0,1.19449 0.9,3.93595 2,6.09213 1.1,2.15618 2,4.54351 2,5.30517 0,0.76167 0.89156,2.1917 1.98124,3.17785 1.63536,1.47999 2.25033,1.56968 3.52258,0.51381 0.85585,-0.71029 1.29096,-2.06806 0.97836,-3.05297 -0.80565,-2.53838 0.498,-6.94386 2.0548,-6.94386 3.18875,0 4.43881,2.9382 3.80993,8.95501 -0.62948,6.02255 0.0604,11.04499 1.51715,11.04499 0.45428,0 1.48552,-0.7875 2.29164,-1.75 z M 114.41509,427.5384 c -0.89851,-0.99284 -1.64772,-3.34473 -1.66492,-5.22642 -0.0172,-1.88169 -1.13809,-5.67126 -2.49086,-8.42126 -1.35277,-2.75 -2.4637,-5.5074 -2.46873,-6.12756 -0.014,-1.72826 2.56137,-3.47448 4.19803,-2.84644 2.58726,0.99283 5.79283,10.50207 5.79283,17.18431 0,6.7724 -0.87668,8.18842 -3.36635,5.43737 z m 34.49489,14.10232 c 2.43191,-2.67218 7.87146,-12.55561 7.87146,-14.30209 0,-0.47714 1.79572,-3.69811 3.9905,-7.15772 2.19477,-3.4596 3.99477,-7.12072 4,-8.13582 0.005,-1.0151 0.94023,-3.15272 2.07778,-4.75027 1.81448,-2.54819 2.0652,-4.35336 2.04309,-14.71031 -0.0298,-13.96362 -0.41514,-15.41235 -3.98912,-14.99789 -1.95097,0.22625 -2.69712,0.94454 -2.91472,2.80585 -0.1827,1.5628 -3.93591,6.3136 -10,12.65798 -10.89541,11.399 -15.3457,18.31234 -13.58498,21.10367 1.82996,2.90108 4.53587,2.02641 6.92316,-2.23788 2.42124,-4.32495 13.33946,-17.52552 14.49538,-17.52552 0.39271,0 1.2563,0.65341 1.91908,1.45201 1.62542,1.95851 0.43819,5.24087 -2.6205,7.245 -1.37976,0.90405 -4.66895,4.82956 -7.30932,8.72336 -2.64037,3.8938 -5.97735,8.17057 -7.41551,9.50394 -2.45166,2.27302 -2.61484,2.99382 -2.61484,11.55 0,11.84659 2.04388,14.36273 7.12854,8.77569 z m 413.83628,-28.18426 c 0.56935,-1.06384 1.03518,-4.21384 1.03518,-7 l 0,-5.06574 -3.94098,0 c -4.34099,0 -4.54527,0.16863 -5.45149,4.5 -1.29769,6.2025 5.69766,12.5353 8.35729,7.56574 z M 131.58144,403.19072 c 2.76252,-2.76252 0.39276,-9.8 -3.3,-9.8 -1.89577,0 -4.5,2.80616 -4.5,4.84892 0,4.4924 5.05194,7.69914 7.8,4.95108 z m 417.2,-6.60142 c 4.60368,-2.24311 5.13131,-5.9586 1.57493,-11.09046 -1.738,-2.50793 -2.57493,-5.04084 -2.57493,-7.79281 0,-4.06065 -4.11887,-16.5524 -6.33532,-19.21381 -0.64057,-0.76917 -1.38968,-4.8149 -1.66468,-8.9905 -0.42238,-6.41336 -0.79189,-7.64756 -2.38017,-7.94989 -1.0341,-0.19684 -2.26471,0.24888 -2.73469,0.9905 -0.46998,0.74161 -0.85844,8.99839 -0.86324,18.34839 -0.008,15.29775 0.19022,17.3004 1.9781,20 1.25812,1.8997 1.98924,4.69268 1.99341,7.61514 0.004,3.14724 0.6658,5.45319 2.07917,7.25 2.3937,3.04309 4.07104,3.19969 8.92742,0.83344 z M 144.58755,384.95499 c 2.63643,-3.74861 3.52736,-6.10071 3.70423,-9.7794 0.1478,-3.07381 0.91925,-5.60169 2.11128,-6.91819 1.58628,-1.75194 1.93249,-4.06511 2.22635,-14.87536 0.33701,-12.39738 0.2631,-12.94565 -2.34502,-17.39607 -1.48115,-2.52739 -2.95873,-4.59525 -3.28352,-4.59525 -1.16117,0 -5.21943,4.37296 -5.21943,5.62418 0,0.70156 -1.4625,3.37966 -3.25,5.95134 -6.69844,9.63706 -8.61492,13.7675 -8.68355,18.71497 -0.0421,3.03435 -0.77202,5.78377 -1.99114,7.5 -1.23599,1.73998 -2.16661,5.30112 -2.60076,9.95223 -0.5937,6.36026 -0.46205,7.32484 1.08045,7.91676 3.30952,1.26998 5.44326,-3.03689 5.45974,-11.02026 0.009,-4.42153 0.56995,-8.0909 1.47325,-9.63922 0.80218,-1.375 2.14523,-3.85 2.98457,-5.5 4.00853,-7.88014 6.31074,-11 8.11711,-11 3.45096,0 2.88977,4.5564 -1.20918,9.81759 -3.84048,4.92941 -5.20417,9.75025 -5.32088,18.80997 -0.0365,2.83124 -0.64188,5.11079 -1.55961,5.87244 -1.91251,1.58724 -1.88863,2.46852 0.12138,4.47852 2.4421,2.4421 4.359,1.52537 8.18473,-3.91425 z m 433.99959,-2.32614 c 1.81813,-3.15597 4.06813,-6.97276 5,-8.48176 1.6209,-2.62476 1.59733,-2.92802 -0.54396,-7 -1.99401,-3.79191 -2.29421,-6.15701 -2.75108,-21.67412 -0.28206,-9.57976 -0.7233,-17.62822 -0.98054,-17.88546 -1.04859,-1.04859 -5.33258,2.88003 -5.98795,5.49122 -0.38691,1.54157 -2.24218,4.68064 -4.12282,6.97572 -1.88064,2.29507 -3.42936,4.77213 -3.44159,5.50457 -0.0122,0.73243 -0.90222,2.4567 -1.97776,3.8317 -1.20197,1.53663 -1.9641,4.078 -1.97776,6.59501 -0.0152,2.80456 -0.6525,4.66539 -2.02224,5.90499 -2.59312,2.34674 -2.5262,3.08594 0.61761,6.82214 2.42015,2.87619 2.58258,3.65677 2.15319,10.34755 -0.27872,4.34313 -0.0459,7.65525 0.58239,8.2835 0.57575,0.57575 3.54431,1.04147 6.59681,1.03494 l 5.55,-0.0119 3.3057,-5.73814 z m -10.26494,-0.17217 c -0.3175,-0.51373 -0.13415,-4.83381 0.40745,-9.60019 1.01085,-8.8962 3.48797,-14.96577 6.10784,-14.96577 2.06558,0 2.37654,4.19084 0.52108,7.02263 -0.91382,1.39466 -1.57713,4.5456 -1.57713,7.49185 0,7.00865 -3.43316,13.32974 -5.45924,10.05148 z m -455.37748,-8.31596 c 0.2075,-0.6875 0.13402,-7.1 -0.16328,-14.25 -0.2973,-7.15 -0.37078,-13.5625 -0.16328,-14.25 0.65071,-2.15606 4.08652,-1.41669 4.64692,1 0.28695,1.2375 0.63303,6.96972 0.76905,12.73827 0.2139,9.07132 0.48334,10.53347 1.9944,10.82277 3.50187,0.67045 4.1101,-4.22876 2.19332,-17.66701 -1.718,-12.04465 -1.87173,-12.49019 -6.10141,-17.68256 -2.38645,-2.92962 -4.339,-6.03193 -4.339,-6.89402 0,-0.90078 -0.85064,-1.56745 -2,-1.56745 -2.25526,0 -2.56422,1.03578 -0.82713,2.77287 0.89717,0.89717 0.89104,1.79145 -0.0261,3.80429 -0.65943,1.44728 -1.47867,8.15037 -1.82054,14.89577 -0.49917,9.84902 -0.30418,13.2257 0.9901,17.14572 0.88644,2.68474 1.86146,6.11885 2.16672,7.63135 0.57681,2.85795 2.02564,3.6688 2.6802,1.5 z m 18.33672,-33.08333 c 0,-2.60655 -1.9609,-2.44297 -2.33415,0.19471 -0.22908,1.61892 0.0853,2.22156 1,1.91667 0.73378,-0.24459 1.33415,-1.19472 1.33415,-2.11138 z m 427.20871,-4.91667 c 3.58072,-3.91603 5.29129,-8.46714 5.29129,-14.0779 0,-6.92176 2.18765,-9.39354 5.11462,-5.77888 1.03696,1.28059 1.88538,2.9535 1.88538,3.71756 0,1.83266 0.93953,1.75392 3.17126,-0.26577 2.36012,-2.13588 2.33715,-6.81795 -0.05,-10.19064 -1.03329,-1.4599 -2.10658,-4.45437 -2.38507,-6.65437 -0.66883,-5.28351 -3.20701,-11.8236 -4.79399,-12.3526 -1.69678,-0.56559 -3.94221,2.65222 -3.94221,5.64937 0,1.32799 -1.125,3.7515 -2.5,5.3856 -1.375,1.63409 -2.5,4.18072 -2.5,5.65916 0,1.47845 -0.9,4.36729 -2,6.41965 -1.41835,2.64635 -2,5.64209 -2,10.30094 0,3.61315 -0.47493,7.45678 -1.0554,8.54139 -1.37907,2.57682 -0.2821,5.89649 1.94847,5.89649 0.96707,0 2.68411,-1.0125 3.81564,-2.25 z m -425.2424,-12.28273 2.65636,-4.53272 -1.98908,-3.21839 c -1.62303,-2.62612 -1.88812,-4.33173 -1.44048,-9.2683 0.49829,-5.49523 0.25833,-6.54948 -2.61723,-11.49888 -3.60486,-6.20468 -4.19135,-7.28722 -6.20269,-11.44898 -0.8801,-1.82105 -2.22078,-3 -3.41153,-3 -1.60254,0 -2.07808,0.91536 -2.59757,5 -0.34975,2.75 -1.34249,6.8 -2.2061,9 -0.86361,2.2 -1.58996,6.5324 -1.6141,9.62756 -0.0517,6.62569 1.3405,8.43719 5.32107,6.92378 2.30859,-0.87772 2.49489,-1.28976 1.62164,-3.58659 -1.39119,-3.65911 -1.22494,-7.75655 0.40519,-9.98587 1.19692,-1.6369 1.62229,-1.71208 3.03816,-0.53702 1.29085,1.07131 1.50675,2.35882 0.99981,5.96226 -0.3556,2.52773 -1.27278,5.59255 -2.03816,6.8107 -3.54518,5.64237 0.37406,18.28518 5.66837,18.28518 1.01857,0 2.86022,-1.89447 4.40634,-4.53273 z M 545.9527,310.73573 c 1.40562,-1.27207 1.82874,-3.12304 1.82874,-8 0,-5.44334 0.25579,-6.34501 1.8,-6.34501 0.99,0 2.30975,0.50975 2.93278,1.13278 2.00684,2.00684 4.26722,0.17306 4.26722,-3.46185 0,-3.318 -2.47478,-7.84477 -7.69202,-14.06994 -3.27079,-3.90268 -8.16131,-13.74465 -9.11813,-18.34985 -0.81919,-3.94277 -3.70263,-5.62756 -5.30471,-3.09953 -0.46998,0.74161 -0.85844,7.87339 -0.86324,15.84839 -0.008,12.8035 0.22374,14.851 1.9781,17.5 1.37789,2.08054 1.98884,4.6941 1.99341,8.52749 0.006,5.23186 1.59017,9.22219 4.44863,11.2072 1.47305,1.02294 1.66691,0.97669 3.72922,-0.88968 z m 0.49541,-17.01168 c -1.25798,-1.25797 -0.66657,-4.33333 0.83333,-4.33333 0.93333,0 1.5,0.94444 1.5,2.5 0,2.42787 -0.97373,3.19294 -2.33333,1.83333 z m -400.11513,15.60972 c 1.68377,-1.86055 1.8724,-4.08059 1.97543,-23.25 0.0627,-11.65618 -0.0784,-21.75555 -0.31351,-22.44305 -0.79446,-2.32333 -4.97539,-1.32164 -7.62457,1.82673 -1.42389,1.69219 -2.58889,3.53372 -2.58889,4.09227 0,0.55855 -0.9,2.15971 -2,3.55813 -3.6577,4.65001 -1.57785,9.58305 3.25797,7.72737 2.56349,-0.9837 2.84253,1.10583 0.76043,5.69425 -2.92495,6.44586 -2.70651,15.00136 0.52375,20.51339 1.39819,2.38582 2.90344,4.33786 3.34502,4.33786 0.44157,0 1.64054,-0.92563 2.66437,-2.05695 z m 377.44846,-23.97678 c 0,-4.68051 -0.24248,-5.17679 -3.45566,-7.07261 -1.90061,-1.12139 -3.71826,-2.86626 -4.03921,-3.87749 -0.32095,-1.01123 -2.1409,-3.02646 -4.04434,-4.47828 -1.90343,-1.45182 -3.46079,-3.31105 -3.46079,-4.13162 0,-0.82057 -1.95294,-3.61017 -4.33988,-6.19911 -2.38693,-2.58894 -5.42798,-6.50716 -6.75789,-8.70716 -7.50141,-12.40922 -11.36266,-15.63957 -14.70223,-12.3 -2.98149,2.98149 -1.35559,6.64071 6.90072,15.53061 4.4554,4.79732 10.15276,11.43296 12.66081,14.74589 6.30972,8.33465 18.47641,21.40229 19.98847,21.46865 0.84171,0.0369 1.25,-1.58931 1.25,-4.97888 z M 182.9396,263.82163 c 17.34213,-17.62485 22.66878,-24.99999 21.47922,-29.73957 -0.36355,-1.44849 -1.63908,-3.15707 -2.83453,-3.79685 -1.89942,-1.01654 -2.52849,-0.76597 -4.98819,1.98691 -1.54806,1.73258 -2.81466,4.00048 -2.81466,5.03976 0,1.03929 -1.575,3.77477 -3.5,6.07884 -1.925,2.30407 -3.5,4.83438 -3.5,5.62289 0,1.66635 -8.78448,10.08124 -14.54158,13.92978 -9.2331,6.17219 -11.9142,10.49005 -9.85143,15.86554 1.35213,3.52359 4.84003,0.97997 20.55117,-14.9873 z m 340.64065,-2.49841 c 0.23129,-1.98728 -0.83247,-3.62568 -4.70716,-7.25 -2.75328,-2.57538 -5.45941,-4.6825 -6.01363,-4.6825 -1.80975,0 -3.34536,-3.97295 -2.11065,-5.46069 1.52379,-1.83604 4.30977,-0.90325 7.61918,2.55103 2.97811,3.10847 5.41345,3.79247 5.41345,1.52044 0,-2.92185 -3.33707,-5.85983 -11.5,-10.12467 -3.95061,-2.06405 -9.68275,-5.55151 -12.7527,-7.7588 -2.96108,-2.12901 -5.7667,-1.32632 -5.69617,1.62968 0.0281,1.17865 1.49062,4.2396 3.25,6.80209 13.44548,19.58302 19.39973,26.0118 23.69887,25.5876 1.85896,-0.18343 2.57662,-0.90503 2.79881,-2.81418 z m -350.54936,-7.1825 c 12.85492,-13.28578 15.75055,-17.30665 15.75055,-21.87118 0,-2.64178 -0.51239,-4.13821 -1.55378,-4.53783 -1.73702,-0.66656 -8.84907,2.23456 -10.57442,4.31348 -0.61418,0.74004 -1.90904,1.34553 -2.87747,1.34553 -2.49484,0 -15.6746,13.54708 -16.28468,16.73855 -1.31582,6.88323 2.00985,6.88856 7.15536,0.0114 5.80119,-7.75345 13.59002,-15.00199 15.68401,-14.59607 3.86208,0.74867 2.37742,3.37629 -7.32505,12.96419 -9.8093,9.69348 -11.6931,12.07941 -10.4884,13.28411 1.34857,1.34857 2.89165,0.22549 10.51388,-7.65223 z m 207.50962,2.36903 c 11.76775,0.0247 14.38712,-0.26584 18.24093,-2.02314 2.79888,-1.27627 6.62268,-2.06027 10.11514,-2.07393 4.07667,-0.0159 6.31178,-0.56993 8.15773,-2.02196 1.39842,-1.1 3.70911,-2 5.13486,-2 1.42575,0 2.59227,-0.41762 2.59227,-0.92804 0,-1.56744 -10.82246,-2.38622 -23.26878,-1.76042 -7.83009,0.39369 -12.67252,0.2167 -14.29486,-0.52249 -1.84827,-0.84213 -3.02174,-0.81372 -4.75736,0.11515 -1.26716,0.67817 -6.55081,1.35929 -11.74146,1.51361 -13.44652,0.39977 -22.7397,1.63888 -24.03976,3.20536 -1.87398,2.258 -0.207,6.27614 2.86745,6.91179 1.50412,0.31098 4.08477,0.90603 5.73477,1.32232 1.78471,0.45027 4.72534,0.24566 7.25907,-0.50509 2.55166,-0.75607 9.76762,-1.25043 18,-1.23316 z m -96.91271,-6.69227 c 1.7345,-0.86528 3.15364,-1.92632 3.15364,-2.35787 0,-1.0615 -11.4556,-8.07376 -13.15073,-8.04989 -0.7421,0.0105 -3.52265,1.38361 -6.179,3.05146 -3.98625,2.50286 -4.61978,3.28545 -3.62756,4.481 0.77054,0.92845 3.08901,1.44854 6.45729,1.44854 3.45126,0 5.68243,0.51489 6.5,1.5 1.57822,1.90163 2.91632,1.88732 6.84636,-0.0732 z m 54.41346,-0.17676 c 0.86338,-0.9625 1.94851,-3.22573 2.41139,-5.0294 0.61502,-2.39653 6.46761,-8.92505 21.73925,-24.25 11.4937,-11.53383 21.39082,-20.97915 21.99359,-20.9896 0.60277,-0.0105 3.34595,-1.45315 6.09595,-3.20599 2.75,-1.75284 6.35,-3.88179 8,-4.731 3.55965,-1.83205 4.40246,-5.38932 1.92537,-8.12648 -2.23295,-2.46738 -3.07071,-2.41591 -7.37162,0.45291 -10.30466,6.87347 -14.88303,9.62956 -15.99645,9.62956 -0.67963,0 -3.23343,2.05552 -5.6751,4.56782 -2.66484,2.74191 -5.12751,4.42628 -6.1608,4.21374 -2.52099,-0.51853 -1.57742,-3.86838 1.86019,-6.60404 3.03685,-2.41673 3.88613,-5.17752 1.59272,-5.17752 -0.72912,0 -2.38256,1.125 -3.67431,2.5 -2.36945,2.52216 -7,3.44291 -7,1.3919 0,-1.64351 9.59833,-10.8919 11.30403,-10.8919 0.80775,0 3.78468,-2.17441 6.61538,-4.83201 5.9692,-5.60418 5.94544,-6.55271 -0.31767,-12.68225 -2.25596,-2.20784 -6.04647,-6.60277 -8.42336,-9.7665 -2.4024,-3.19769 -5.73312,-6.3455 -7.5,-7.08812 -3.67847,-1.54607 -11.67838,-9.8561 -11.67838,-12.13112 0,-1.53947 -25.0403,-28.45108 -30.23083,-32.49004 -2.41354,-1.87807 -4.3019,-2.16573 -16.25244,-2.47579 -16.27758,-0.42232 -16.36519,-0.37394 -19.60097,10.82278 -2.8745,9.9466 -2.38034,10.8989 6.15202,11.85558 4.07162,0.45653 7.26702,1.44913 8.89356,2.76264 1.39626,1.12756 4.91954,3.69533 7.8295,5.70616 6.18273,4.27237 6.66176,6.95907 1.17294,6.57852 -1.90508,-0.13208 -5.42996,0.27893 -7.83306,0.91336 -3.51097,0.92691 -4.64052,1.80265 -5.75,4.45803 -0.7594,1.81749 -1.38072,4.16983 -1.38072,5.22744 0,1.0576 -0.89012,3.88455 -1.97804,6.28212 -2.24906,4.95647 -2.6608,10.80505 -0.77196,10.96516 0.6875,0.0583 2.4875,0.0244 4,-0.0754 2.50406,-0.16512 2.75,0.12747 2.75,3.27159 0,5.0705 1.67256,5.94972 9.79564,5.14929 6.51221,-0.6417 7.02746,-0.54213 8.56666,1.65538 1.03175,1.47304 1.6377,4.35947 1.6377,7.8012 0,4.23273 0.48967,5.98427 2.17431,7.77749 3.44332,3.66525 6.11241,2.93348 12.53097,-3.43555 3.1871,-3.1625 7.11965,-6.7625 8.739,-8 3.39978,-2.59809 7.55572,-3.00229 7.55572,-0.73485 0,3.00698 -6.26031,12.51114 -12.63258,19.17831 -3.57801,3.7436 -7.34121,8.38154 -8.36266,10.30654 -1.02145,1.925 -6.08407,7.77922 -11.25026,13.00937 -11.2075,11.34628 -13.56376,14.58137 -11.86066,16.28447 0.92153,0.92153 2.07785,0.23085 5.10853,-3.05135 2.15456,-2.33337 4.56229,-4.24249 5.35052,-4.24249 2.60236,0 2.60431,2.89742 0.004,5.98769 -2.86388,3.40353 -2.61627,6.76739 0.37826,5.13866 0.97066,-0.52794 4.13543,-3.47234 7.03283,-6.54312 2.89739,-3.07078 5.64947,-5.58323 6.11572,-5.58323 1.39295,0 -0.48654,7.90365 -2.37596,9.99144 -1.70023,1.87873 -1.49182,5.00856 0.33351,5.00856 1.60718,0 9.15874,-8.89702 9.15874,-10.79057 0,-2.27075 5.00396,-7.20943 7.30472,-7.20943 3.26811,0 1.20578,6.36978 -4.49547,13.88486 -2.50661,3.30408 -2.37756,9.11514 0.20243,9.11514 0.37309,0 1.38475,-0.7875 2.24814,-1.75 z m 19.24018,-7.25 c 0,-2.25315 -4.88497,-1.95506 -5.32405,0.32489 -0.28417,1.47558 0.19175,1.7627 2.4863,1.5 1.71138,-0.19593 2.83775,-0.92027 2.83775,-1.82489 z m 20,-4.39208 c 0,-1.99613 -0.85872,-3.53321 -2.77192,-4.96161 -2.59521,-1.93761 -3.03679,-1.97637 -6.92696,-0.60792 -5.21231,1.83353 -5.68459,3.23833 -2.18046,6.48585 2.27973,2.11279 3.58137,2.51656 7.32582,2.27253 4.28663,-0.27938 4.55352,-0.46628 4.55352,-3.18885 z m 71.28041,1.04024 c 2.34639,-2.34639 0.24668,-6.03974 -5.51437,-9.69969 -6.74061,-4.28226 -9.21089,-4.7348 -11.35975,-2.08107 -2.35472,2.90795 -1.02678,7.65191 3.21812,11.49651 2.75081,2.49139 3.7422,2.79852 7.62191,2.36122 2.4529,-0.27648 5.16824,-1.21112 6.03409,-2.07697 z m -187.06163,-1.75474 c 3.50726,-1.70862 6.21179,-3.6017 6.01008,-4.20684 -0.46855,-1.40565 -4.53669,-3.88595 -12.70261,-7.74464 -7.29676,-3.44797 -10.46442,-3.02864 -11.61031,1.53696 -0.50553,2.01418 0.24624,3.69466 3.59402,8.03401 2.6905,3.48738 4.98013,5.48709 6.28262,5.48709 1.12715,0 4.91894,-1.39796 8.4262,-3.10658 z m 29.64522,-0.69717 c 1.4498,-2.09206 2.63554,-4.22956 2.63498,-4.75 -0.002,-1.90763 -9.74452,-6.44625 -13.83734,-6.44625 -4.68921,0 -5.71447,1.05991 -4.09109,4.22933 1.8355,3.58357 9.17674,10.77067 11.00166,10.77067 0.91068,0 2.84199,-1.71169 4.29179,-3.80375 z m 105.70174,2.76857 c 2.86562,-1.53364 2.35498,-4.38824 -1.37003,-7.65884 -4.31424,-3.78796 -9.03631,-5.6883 -12.1763,-4.90021 -3.80187,0.95421 -3.28063,4.70981 1.32575,9.55212 4.04153,4.24853 8.05528,5.23613 12.22058,3.00693 z m 27,0 c 2.46535,-1.31942 2.45931,-4.59146 -0.016,-8.651 -2.73879,-4.49172 -5.13194,-5.44632 -12.80826,-5.10908 -8.9781,0.39443 -9.25734,2.00367 -1.61224,9.2911 6.03557,5.75319 9.83768,6.93018 14.43647,4.46898 z m -185.09134,-3.43397 c 0.98214,-1.18341 0.81146,-1.98763 -0.87756,-4.13486 -2.04096,-2.59467 -2.68439,-6.70127 -1.52383,-9.72565 0.31515,-0.82127 3.64581,-2.50061 7.40147,-3.73186 l 6.82847,-2.23864 2.73339,2.15008 c 1.50336,1.18254 3.46019,2.15305 4.34852,2.15667 0.88833,0.004 2.96514,0.90066 4.61514,1.99341 3.61156,2.39184 6.30659,2.5242 9.26102,0.45484 3.99091,-2.79535 11.42149,-2.98489 17.5434,-0.4475 3.28769,1.36267 6.41825,2.0281 7.85037,1.66866 2.6859,-0.67412 12.56312,-10.26331 16.34971,-15.87295 1.37253,-2.03332 2.49174,-4.73332 2.48714,-6 -0.006,-1.58013 -3.60391,-5.99133 -11.46293,-14.05305 -6.30001,-6.4625 -11.88678,-11.75 -12.41504,-11.75 -0.52826,0 -2.95722,-1.52415 -5.39768,-3.38699 -3.07717,-2.34886 -6.00724,-3.60293 -9.5596,-4.0915 l -5.1224,-0.70451 -6.33706,6.5915 c -7.15798,7.44539 -8.86252,7.90239 -18.33618,4.91608 l -5.31503,-1.67541 -8.31156,4.17541 c -4.57136,2.29648 -8.84461,4.17542 -9.49611,4.17542 -1.09221,0 -3.72393,1.08745 -14.84758,6.13517 -2.26024,1.02566 -4.55937,1.86483 -5.10917,1.86483 -0.5498,0 -4.4581,1.59791 -8.6851,3.5509 -10.49057,4.84694 -12.02081,8.77804 -6.17235,15.85641 2.28182,2.76168 2.81432,2.91196 10.63031,3 6.26626,0.0706 8.39704,0.45035 8.93642,1.59269 3.55158,7.52189 5.29246,8.98818 17.64925,14.86545 2.27691,1.08297 4.44097,2.45627 4.80902,3.05179 0.97948,1.58483 6.10812,1.3215 7.52555,-0.38639 z m 230.5256,-1.53085 c 1.27266,-1.40628 3.07997,-2 6.08804,-2 3.85734,0 4.64069,-0.44254 7.96547,-4.5 2.34933,-2.86704 4.49052,-4.5 5.90056,-4.5 1.21723,0 4.08803,-1.73088 6.37954,-3.84639 3.70108,-3.41682 4.16639,-4.34881 4.16639,-8.34501 0,-3.04386 -0.56591,-4.98577 -1.75,-6.00505 -3.13214,-2.69617 -16.73944,-9.21839 -27.75,-13.30104 -3.85,-1.42756 -8.54675,-3.31071 -10.43721,-4.18479 -2.70789,-1.25202 -5.45757,-1.46869 -12.95893,-1.02116 l -9.52171,0.56808 -5.78189,-3.56879 c -3.18003,-1.96283 -6.29112,-4.18237 -6.91352,-4.93231 -0.62239,-0.74995 -2.10124,-1.36354 -3.28632,-1.36354 -2.73521,0 -8.60042,5.28971 -8.60042,7.75654 0,3.38866 -8.40005,9.70202 -24.12083,18.12889 -5.94996,3.18937 -16.87917,14.52501 -16.87917,17.50686 0,2.49967 2.32299,2.91742 6.50539,1.1699 4.63516,-1.93669 8.40154,-1.94716 10.93574,-0.0304 2.4991,1.89023 5.89144,1.8647 9.63758,-0.0725 2.83332,-1.46517 5.00287,-1.58771 24.17129,-1.36529 2.6125,0.0303 8.2561,-0.0613 12.54133,-0.20366 8.86905,-0.29456 9.68674,0.10694 21.09811,10.35965 6.85783,6.16151 9.67108,6.99809 12.61056,3.75 z M 384.6048,182.35707 c 3.3877,-2.0654 3.79539,-4.21717 0.90526,-4.77783 -1.90516,-0.36959 -5.72862,3.17547 -5.72862,5.31148 0,1.98356 0.8486,1.88967 4.82336,-0.53365 z m 25.7798,-7.48345 c 1.55237,-2.36922 1.52435,-2.8177 -0.47694,-7.63336 -1.16942,-2.81393 -2.12622,-5.50234 -2.12622,-5.97424 0,-1.1666 -5.83947,-8.65567 -9.78437,-12.54838 -3.66101,-3.61256 -3.73239,-4.05234 -1.72934,-10.65432 1.15802,-3.8168 1.23558,-5.80557 0.37047,-9.5 -1.57714,-6.73512 -3.11094,-9.25356 -7.9041,-12.97819 -4.19315,-3.25838 -4.36241,-3.29644 -11.85328,-2.66527 -7.29771,0.61489 -7.85812,0.50432 -14.11739,-2.78562 -5.28508,-2.77789 -8.02789,-3.5345 -14.5,-3.99989 -4.3901,-0.31568 -9.65504,-1.28714 -11.69987,-2.1588 -5.2834,-2.25217 -9.78212,-2.11117 -9.78212,0.30659 0,2.74745 10.51556,6.666 21,7.82552 4.78667,0.52938 7,1.73043 7,3.79852 0,2.54445 -2.37154,2.52883 -13.25,-0.0873 -2.28954,-0.5506 -2.75,-0.33316 -2.75,1.29857 0,2.49154 16.77742,11.00687 23.50252,11.92865 2.50365,0.34316 4.79188,1.01193 5.08496,1.48614 0.90369,1.46221 -4.88056,3.05018 -8.83748,2.42619 -3.21025,-0.50625 -3.75,-0.32149 -3.75,1.28361 0,1.89773 7.84931,9.92728 11.73987,12.00944 1.16378,0.62284 5.18004,1.47146 8.92502,1.88583 5.32314,0.58898 6.88246,1.13529 7.14541,2.50339 0.27521,1.4319 -0.39334,1.75 -3.67796,1.75 -2.20787,0 -4.3046,0.46971 -4.65941,1.0438 -0.82347,1.3324 1.31952,3.9562 3.23122,3.9562 0.80259,0 3.38134,1.575 5.73055,3.5 3.16817,2.59608 5.22434,3.5 7.96157,3.5 3.64357,0 3.68658,0.047 3.39701,3.71163 -0.28388,3.59268 -0.17062,3.73225 3.5341,4.35516 2.10506,0.35394 4.79256,1.60871 5.97222,2.78837 2.79468,2.79468 4.28622,2.7066 6.30356,-0.37226 z M 297.19965,136.78373 c 2.21564,-0.85022 1.97949,-5.1098 -0.35247,-6.35783 -4.4784,-2.39677 -10.06574,-0.68628 -10.06574,3.08149 0,2.58063 6.72218,4.69464 10.41821,3.27634 z m 71.5847,-37.885348 c -1.28304,-3.37465 -1.26164,-4.91204 0.13313,-9.567376 1.2411,-4.142418 4.87441,-6.006424 7.48484,-3.839961 1.22856,1.019614 1.18276,1.459169 -0.32571,3.126013 -0.9769,1.079464 -1.98586,4.226294 -2.27523,7.096204 -0.60759,6.025908 -3.28959,7.728618 -5.01703,3.18512 z M 332.96597,71.904604 c -5.12351,-4.631367 -10.29851,-8.716281 -11.5,-9.077588 -2.74093,-0.824241 -8.68453,-6.390008 -8.68453,-8.132461 0,-2.088865 2.6118,-1.52421 7.84558,1.696167 2.68159,1.65 5.19464,3 5.58455,3 1.20129,0 20.41958,19.816959 19.80972,20.426819 -1.57981,1.57981 -4.53604,-0.211986 -13.05532,-7.912937 z m 19.17801,-14.209752 c 0.40336,-0.403365 1.4993,-0.185733 2.43542,0.483627 0.93612,0.66936 2.60204,1.618199 3.70204,2.108532 4.51862,5.724938 20.57566,9.914227 20.99482,17.112093 -8.89738,3.990928 -24.0704,-14.450521 -27.13228,-19.704252 z m 10.63746,-5.938989 c 0,-2.055024 2.30896,-1.648826 6.10212,1.073497 4.73691,4.595934 14.39665,5.096125 17.52335,11.254527 0.47003,11.271064 -22.5747,-8.389624 -23.62547,-12.328024 z m 12.05868,-9.901407 c 3.82902,2.558066 13.72317,6.283679 14.94132,11.107695 -4.11055,4.555284 -16.24373,-5.993451 -14.94132,-11.107695 z m 13.94132,-0.463734 c -3.99567,-3.99567 -1.18978,-7.664817 3.50772,-4.586898 3.15038,2.06421 3.48839,6.586898 0.49228,6.586898 -1.1,0 -2.9,-0.9 -4,-2 z M 530.22158,609.24566 c -2.99208,-2.82978 -5.44014,-5.76469 -5.44014,-6.52202 0,-0.75733 2.1375,-2.75016 4.75,-4.42852 3.9019,-2.5067 5.50873,-2.97108 8.99945,-2.60087 6.37232,0.67581 7.25055,1.86087 7.25055,9.78373 0,7.60857 -1.02343,8.91274 -6.99412,8.91274 -2.3909,0 -4.40435,-1.20939 -8.56574,-5.14506 z m -388.15583,-3.10494 c -0.63377,-2.3375 -1.4207,-6.59882 -1.74872,-9.46959 -0.50282,-4.40053 -0.2778,-5.5382 1.434,-7.25 3.36977,-3.36977 8.63537,-2.72903 12.66233,1.54079 4.81175,5.10194 4.44936,7.41591 -2.32349,14.83641 -5.57939,6.11293 -8.4331,6.2104 -10.02412,0.34239 z"
       style="fill:#e10f0c;stroke:none"
       id="path1875" />
    <path
       d="m 90.853165,677.70513 c 0,0 -21.346375,-41.71272 -21.346375,-41.71272 l 48.50329,-5.04484 6.2607,12.23395 -33.417615,34.52361 m -6.692899,-32.5353 7.965679,15.56564 19.419055,-19.01964 -27.384734,3.454 m 47.932924,12.10196 18.08682,25.44998 -7.33695,4.9214 -11.38477,-16.01953 -7.00919,4.70155 10.70587,15.06423 -7.33694,4.92141 -10.70587,-15.06423 -8.62281,5.78392 11.76775,16.5584 -7.33695,4.9214 -18.469795,-25.98885 37.642835,-25.24968 m 8.01443,81.12085 17.62043,-31.66571 -34.00596,14.31781 -8.01669,-8.48753 45.15934,-17.91826 9.50817,10.0666 -22.2486,42.17463 -8.01669,-8.48754 m 38.49563,-25.02388 31.98502,26.6825 -5.80833,6.57158 -11.50625,-9.59871 -23.99181,27.1445 -8.9493,-7.46567 23.99182,-27.1445 -11.52948,-9.61811 5.80833,-6.57159 m 34.58168,72.91589 -15.01443,-10.40765 -7.20973,4.94829 -9.65214,-6.69064 40.36082,-26.61556 11.44789,7.93539 -12.77616,45.73661 -9.65214,-6.69063 2.49589,-8.21581 m -7.69079,-15.45979 10.20085,7.07097 5.4825,-17.91974 -15.68335,10.84877"
       style="font-size:64px;font-style:normal;font-variant:normal;font-weight:bold;font-stretch:normal;text-align:center;line-height:125%;writing-mode:lr-tb;text-anchor:middle;fill:#f8dfb7;fill-opacity:1;stroke:none;font-family:Sans"
       id="text3083" />
    <path
       d="m 249.71839,833.6649 20.26736,9.0288 -3.70054,8.30677 -30.28686,-13.49234 4.08204,-9.16313 19.60265,-7.44895 -8.61549,-17.21443 3.91672,-8.79204 29.65885,13.21258 -3.70053,8.30676 -19.15409,-8.53286 8.93546,17.80171 -21.00557,7.98713 m 39.02618,-24.89559 11.61427,3.14001 -12.17672,45.03924 -11.61427,-3.14001 12.17672,-45.03924 m 10.9842,51.02129 4.95789,-46.39208 27.83834,2.97506 -0.92568,9.04661 -15.91588,-1.70092 -3.99155,37.34982 -11.96312,-1.27849 m 35.42662,-42.53525 15.21365,-1.7371 13.38895,23.60223 7.78597,-26.01999 15.1826,-1.73355 5.29283,46.35506 -11.30156,1.29042 -3.87125,-33.90471 -7.8268,26.21337 -7.57578,0.865 -13.53441,-23.77434 3.87125,33.90471 -11.33261,1.29396 -5.29284,-46.35506 m 93.54976,21.58632 -18.19346,4.78626 -0.7085,8.9756 -11.69579,3.07689 4.84235,-49.51767 13.87176,-3.64932 28.58283,40.7243 -11.69579,3.07688 -5.0034,-7.47294 m -17.49449,-4.34841 12.36067,-3.25179 -10.88788,-16.32976 -1.47279,19.58155"
       style="font-size:64px;font-style:normal;font-weight:bold;text-align:center;text-anchor:middle;fill:#f8dfb7;fill-opacity:1;stroke:none;font-family:Sans"
       id="text3087" />
    <path
       d="m 474.55809,746.89329 c -3.11602,1.93262 -4.81897,4.58227 -5.10886,7.94894 -0.28988,3.36676 0.86088,7.13927 3.45228,11.31754 2.58042,4.16062 5.44304,6.85917 8.58787,8.09564 3.14481,1.23652 6.27523,0.88848 9.39127,-1.04411 3.13371,-1.94353 4.84551,-4.59867 5.13542,-7.96541 0.28986,-3.36669 -0.85541,-7.13035 -3.43581,-11.29098 -2.59142,-4.17826 -5.45953,-6.88566 -8.60434,-8.1222 -3.14483,-1.23645 -6.28411,-0.88292 -9.41783,1.06058 m -4.59535,-7.40941 c 6.37368,-3.95293 12.49739,-5.22586 18.37114,-3.81878 5.87372,1.40719 10.80356,5.32416 14.78952,11.7509 3.97492,6.40914 5.28751,12.55727 3.93778,18.44443 -1.3498,5.88722 -5.21152,10.8073 -11.58517,14.76028 -6.356,3.94202 -12.47971,5.21495 -18.37115,3.81878 -5.87374,-1.40712 -10.79809,-5.31523 -14.77304,-11.72434 -3.98592,-6.42677 -5.30401,-12.58376 -3.95426,-18.47099 1.36749,-5.89813 5.22921,-10.81821 11.58518,-14.76028 m 3.04455,20.02804 13.57064,-8.41658 4.793,7.7281 -13.57063,8.41657 -4.79301,-7.72809 m 20.66594,-34.16496 25.39335,-20.23357 5.66696,7.1121 -15.98388,12.73604 5.41379,6.79438 15.03072,-11.97656 5.66695,7.1121 -15.03072,11.97655 6.66014,8.35855 16.52157,-13.16448 5.66695,7.1121 -25.93104,20.66199 -29.07479,-36.4892 m 27.20048,-21.53061 27.39459,-29.05979 6.61704,6.23787 -10.61081,11.2558 27.33226,25.76604 -8.25285,8.75451 -27.33226,-25.76605 -8.82315,9.35947 m 67.60224,-36.85645 -10.56783,15.56378 5.36445,7.23091 -6.7936,10.00528 -28.89154,-40.50588 8.05753,-11.86673 48.30686,11.91197 -6.79361,10.00528 -8.68226,-2.34461 m -16.044,8.21924 7.1798,-10.57406 -18.93807,-5.15329 11.75827,15.72735"
       style="font-size:64px;font-style:normal;font-weight:bold;text-align:center;text-anchor:middle;fill:#f8dfb7;fill-opacity:1;stroke:none;font-family:Sans"
       id="text3091" />
    <g
       transform="translate(511.0897,-1.268177)"
       id="g9248">
      <path
         d="m -231.34486,499.77786 c -28.28575,18.81121 -55.40911,39.30225 -83.00621,59.1061 30.59236,12.51729 60.75207,26.05669 90.83334,39.74764 -2.69283,-33.05749 -5.60866,-66.10686 -7.21513,-99.24026 l -0.35615,0.22494 -0.25585,0.16158 z m 39.2967,22.03192 c 7.08722,17.41969 11.90249,35.63866 17.81235,53.46928 -17.14851,9.30222 -34.3277,18.54764 -51.50443,27.79758 25.0483,10.95297 50.09245,21.91588 75.14687,32.85461 3.81342,-8.7757 7.66569,-17.53488 11.46691,-26.3159 -6.84194,-2.84412 -13.58618,-5.91467 -20.35698,-8.92228 6.83703,-3.87486 13.69651,-7.41543 20.58245,-11.20923 -2.06874,-5.35477 -3.75413,-10.84374 -5.63682,-16.26625 5.79493,2.46995 11.50596,5.13333 17.3292,7.53723 3.81843,-8.76745 7.7203,-17.49891 11.49911,-26.28369 -25.58268,-11.19147 -51.15865,-22.39923 -76.72518,-33.62766 0.12884,0.3221 0.25768,0.64421 0.38652,0.96631 z m -63.42229,30.37441 c 0.66693,0.9771 -1.72967,0.58488 -0.48316,0.22548 0.10451,0.34174 0.49252,-0.70552 0.48316,-0.22548 z m 174.258298,20.74351 c -19.239228,1.18101 -35.394468,16.53539 -40.778438,34.54405 -6.40417,19.55919 2.22114,43.95141 21.3511,52.66585 19.355743,9.11073 45.333049,0.94498 55.25002,-18.23491 9.388865,-15.57162 10.708409,-37.18019 -0.262394,-52.29 -8.087749,-11.00743 -21.94345,-17.20416 -35.560288,-16.68499 z m 3.96188,28.7961 c 2.165116,0.13454 4.267533,1.22021 5.765663,2.60904 -1.857948,-0.79063 -4.441037,-1.60631 -5.765663,-2.60904 z m -15.911941,24.51212 c 5.018783,2.50028 10.535906,4.40591 15.428785,6.89303 -5.642583,3.53743 -15.021346,0.51473 -15.654258,-6.63535 -0.163278,-0.14265 -0.262404,-0.88593 0.225473,-0.25768 z"
         style="font-size:90.00002289px;fill:#f8dfb7;fill-opacity:1;stroke:none"
         id="use7337" />
      <path
         d="m -70.262708,593.41106 c -7.15792,-4.11756 -19.910711,-2.78258 -27.924792,10.71394 0,0 38.157643,17.00139 38.157643,17.00139 3.487333,-13.79342 -0.481946,-22.10617 -10.232851,-27.71533 z M -234.625,505.90625 l -72.34375,52.0625 79.0625,34.8125 -6.71875,-86.875 z m -6.0625,12.65625 c 1.63617,21.0222 3.26876,42.06126 4.90625,63.09375 -19.0804,-8.41962 -38.18182,-16.84114 -57.28125,-25.21875 17.37784,-12.80143 34.74173,-25.60021 52.375,-37.875 z m 54.46875,8.6875 c 5.37126,16.55445 10.57664,33.16225 15.84375,49.75 l -47.84375,25.84375 65,28.5 9.25,-20.0625 c -7.90555,-3.35368 -15.74583,-6.85814 -23.59375,-10.34375 l 24.125,-13.15625 c -2.59985,-6.86873 -4.94063,-13.8316 -7.3125,-20.78125 l 21.53125,9.3125 8.59375,-20.1875 -65.59375,-28.875 z m -60.71875,5.65625 -31.0625,21.40625 33.5625,14.75 -2.5,-36.15625 z m 72.1875,7.125 c 14.94792,6.69407 29.96001,13.25518 44.96875,19.75 -1.04081,2.40033 -2.08366,4.83947 -3.15625,7.3125 L -162.625,554.25 c 3.55862,10.06661 6.96773,20.1852 10.53125,30.25 l -31.3125,17.125 c 10.07702,4.39415 20.11212,8.88335 30.1875,13.28125 -1.06852,2.51815 -2.16903,4.96703 -3.3125,7.34375 -15.23522,-6.67295 -30.46445,-13.36934 -45.6875,-20.0625 l 40.28125,-21.8125 c -4.27559,-13.4464 -8.53954,-26.89651 -12.8125,-40.34375 z m 92.875,36.1875 c -16.29772,0.66866 -29.13574,13.10593 -34.78125,27.15625 -0.0139,0.0295 -0.0175,0.0642 -0.0312,0.0937 -0.0171,0.0428 -0.0455,0.0821 -0.0625,0.125 -6.69847,14.46165 -5.84917,33.68117 6.5,45.40625 12.471846,12.64766 34.261939,16.09125 48.96875,4.65625 15.516126,-11.56951 23.400092,-32.54939 18.1875,-51.5 l 0,-0.0937 L -43.125,602 c -5.26023,-16.20335 -22.046944,-26.54154 -38.75,-25.78125 z m 0.28125,7 0.03125,0 c 13.488465,-0.61397 27.504692,8.0893 31.71875,20.78125 0.003,0.009 -0.003,0.0221 0,0.0312 4.344553,15.84903 -2.560957,34.24352 -15.6875,44.03125 l -0.03125,0.0312 -0.03125,0.0312 c -11.388915,8.85524 -29.763533,6.00224 -39.75,-4.125 l -0.0625,-0.0312 -0.0312,-0.0312 c -9.66123,-9.17298 -10.55175,-25.48053 -4.875,-37.5625 l 0.0312,-0.0937 0.0625,-0.125 c 4.75771,-12.01392 15.743105,-22.40899 28.625,-22.9375 z m -19.90688,29.67244 c -6.92962,14.56321 -0.4259,26.90119 9.81313,31.07756 11.215932,4.13572 22.799387,-2.10375 27.71875,-13.71875 0,0 -37.53188,-17.35881 -37.53188,-17.35881 z"
         style="font-size:90.00002289px;fill:#e10f0c;fill-opacity:1;stroke:none"
         id="text1883" />
    </g>
  </g>
</svg>
